<?xml version="1.0" encoding="utf-8"?>
<!-- Generator: Adobe Illustrator 23.0.6, SVG Export Plug-In . SVG Version: 6.00 Build 0)  -->
<svg version="1.1" id="Calque_1" xmlns="http://www.w3.org/2000/svg" xmlns:xlink="http://www.w3.org/1999/xlink" x="0px" y="0px"
	 viewBox="0 0 1920 1080" style="enable-background:new 0 0 1920 1080;" xml:space="preserve">
<style type="text/css">
	.st0{fill:#EDF6F9;}
	.st1{fill:#FFFFFF;}
</style>
<g>
	<g>
		<g>
			<path class="st0" d="M1877.49,602.76c22.42,0.99,11.41-41.66,5.95-52.57c-12.24-24.42-34.82-34.66-59.46-22.95
				c7.13-38.55-20.57-80.73-50.09-103.26c-38.74-29.57-107.2-25.94-122.25,27.3c-5.04,17.85-6.9,45.58-2.82,63.72
				c-18.07-11.72-40.21-17.34-60.31-4.94c-19.51,12.05-32.98,35.75-26.85,58.59c-11.28-13.66-16.78,23.61-19.24,29.41
				c-6.19,14.5-20.59,14.58-31.1,23.68c17.66,2.62,44.68-7.4,92.82-8.26c7.84,0.38,15.44,0.56,22.07,0.25
				c23.44-1.09,51.42,0,74.94,0c46.59,0,81.78-6,128.37-3.77c19.84,0.95,39.47-1.62,58.93-1.29
				C1885.58,605.49,1882.06,604.17,1877.49,602.76z M1563.94,611.21c2.53,0.07,5.22,0.18,8.01,0.33L1563.94,611.21z"/>
		</g>
	</g>
	<g>
		<path class="st1" d="M1821.43,523.87c0.88,4.26,0.55,1.97,0.18-0.14c1.07-0.85,2.15-1.8,3.21-2.83
			c3.24-36.76-23.03-75.61-50.93-96.91c-38.74-29.57-107.2-25.94-122.25,27.3c-5.04,17.85-6.9,45.58-2.82,63.72
			c-18.07-11.72-40.21-17.34-60.31-4.94c-19.51,12.05-32.98,35.75-26.85,58.59c-11.28-13.66-16.78,23.61-19.24,29.41
			c-5.61,13.14-17.95,14.46-28.04,21.36c11.54-2.48,21.95-7.67,29.53-17.74c12.89-17.12,16.78-29.22,39.94-20.48
			c4.14-20.35-4.67-42.62,20.57-54.73c19.05-9.13,41.95-4.88,51.94,14.16c-12.45,3.45-28.89,12.18-22.81,28.41
			c11.74-12.66,29.4-19.71,45.99-23.65c12.98-3.08,27.5,1.78,38.77-1.11c-11.69-34.07-33.92-73.1,10.5-96.41
			c34.49-18.09,73.19,21.84,84.47,50.55C1816.56,506.79,1819.61,515.04,1821.43,523.87z"/>
	</g>
</g>
<path class="st1" d="M1910,1062.86c-239.84-31.64-869.94-9.88-889.55-9.19l-0.38,0c2.7-1.03,56.27-21.22,67.42-28.18
	c11.38-7.08,48.74-10.59,48.74-10.59s30.87-48.94,86.6-57.92c55.7-9.03,35.86,44.88,35.86,44.88s14.1-18.64,32.44-24.16
	c18.32-5.47,28.99,11.6,28.99,11.6s16.08-37.69,52.72-48.68c36.7-10.99,49.26,50.44,49.26,50.44s33.33-175.08,136.74-190.08
	c103.42-15,74.03,153.68,74.03,153.68s60.56-61.51,127.1-43.61c66.54,17.9,51.47,114.34,51.47,114.34
	c30.87-10.73,53.49-5.2,69.17,4.53C1901.27,1042.7,1910,1062.86,1910,1062.86"/>
<path class="st0" d="M1020.26,1053.67l168.13-17.5c0,0,5.1-29.89,28.98-22.51c23.89,7.34,27.07,17.25,27.07,17.25
	s6.86-5.73,15.51-3.72c8.69,2.01,24.83,11.24,24.83,11.24s35.46-66.1,86.27-56.71c50.87,9.35,42.68,44.62,42.68,44.62
	s31.63-18.25,41.27-12.38c9.59,5.91,17.43,11.36,17.43,11.36s51.92-176.24,109.68-157.35c57.77,18.88,46.69,129.67,46.69,129.67
	s31.13-23.86,36.96-9.7c5.87,14.17,8.65,25.81,8.65,25.81s47.75-87.67,86.28-56.76c38.55,30.87,42.47,84.81,42.47,84.81
	s42.26-14.42,77.28-11.86c20.64,12.78,29.38,32.94,29.38,32.94C1669.97,1031.22,1039.87,1052.98,1020.26,1053.67"/>
</svg>
