<?xml version="1.0" encoding="utf-8"?>
<!-- Generator: Adobe Illustrator 23.0.6, SVG Export Plug-In . SVG Version: 6.00 Build 0)  -->
<svg version="1.1" id="Calque_1" xmlns="http://www.w3.org/2000/svg" xmlns:xlink="http://www.w3.org/1999/xlink" x="0px" y="0px"
	 viewBox="0 0 1920 1080" style="enable-background:new 0 0 1920 1080;" xml:space="preserve">
<style type="text/css">
	.st0{fill:#FFFFFF;}
	.st1{fill:#EDF6F9;}
</style>
<g>
	<path class="st0" d="M1824.74,357.84c45.08,32.26,49.3,104.57,11.12,144.01c8.64-3.84,19.01,4.47,19.98,13.87
		c3.41,33.08-35.07,37.54-59.08,38.14c-26.71,0.66-53.26-1.71-79.93-1.37c-18.23,0.23-36.51-0.87-54.61-3
		c-3.18-0.37-6.46-0.82-9.2-2.47c-2.74-1.65-4.82-4.85-4.17-7.99c0.66-3.2,3.76-5.23,6.68-6.72c10.99-5.63,23.21-8.81,35.55-9.25
		c-10.67-5.84-21.42-11.33-28.71-21.13c-7.39-9.94-14.26-19.64-18.07-31.6c-4.15-13.01-4.51-27.51,0.69-40.13
		c3.16-7.66,8.66-14.76,16.34-17.87c7.69-3.12,17.65-1.26,22.3,5.61c-2.48-3.66,4.65-18.37,6.34-21.9
		c3.65-7.58,8.63-14.48,14.4-20.57c12-12.66,26.38-22.78,42.99-28.51C1773.26,338.01,1802.4,341.86,1824.74,357.84z"/>
	<path class="st1" d="M1796.88,346.28c-12.12,0.48-23.03,7.86-31.12,16.89c-21.21,23.69-26.12,57.89-24.59,89.65
		c6.85-12.31,20.94-20.22,35.02-19.63c4.26,0.17,8.56,1.1,12.23,3.27c5.19,3.07,8.71,8.37,10.99,13.95
		c9.37,22.96-1.65,51.2-22.22,65.04c11.01-2.69,23.5,4.41,26.81,15.24c1.08,3.54,1.32,7.41,3.17,10.61
		c4.59,7.93,15.88,7.79,24.97,6.63c-5,0.64-9.84,3.5-15.02,4.29c-6.74,1.04-13.56,1.47-20.37,1.64
		c-26.71,0.66-53.26-1.71-79.93-1.37c-18.23,0.23-36.51-0.87-54.61-3c-3.18-0.37-6.46-0.82-9.2-2.47
		c-11.7-7.06,5.43-20.35,13.48-19.16c-2.71-0.4-5.18,2.31-5.18,5.04c0,2.74,1.94,5.19,4.31,6.54c2.37,1.36,5.14,1.82,7.85,2.2
		c18.43,2.57,37.12,2.19,55.72,1.81c3.57-0.07,7.13-0.15,10.71-0.22c-15.76-4.02-31.06-9.78-45.58-17.11
		c-11.15-5.63-24.42-14.04-31.97-24.19c-7.39-9.94-14.26-19.64-18.07-31.6c-4.15-13.01-4.51-27.51,0.69-40.13
		c2.44-5.91,6.26-10.73,10.78-15.17c-4.18,6.66-5.06,14.42-4.33,22.14c0.96,10.09,4.3,20.18,10.89,27.88
		c8.96,10.46,22.67,15.34,35.77,19.59c-4.74-1.54-9.92-16.57-11.54-20.86c-2.95-7.84-4.74-16.12-5.28-24.49
		c-0.98-15.14,2.15-29.69,8.68-43.27c3.65-7.58,8.63-14.48,14.4-20.57c12-12.66,26.38-22.78,42.99-28.51
		C1762.78,341.62,1781.74,339.46,1796.88,346.28z"/>
</g>
<g>
	<path class="st0" d="M1641.16,530.94c6.06-7,14.67-11.48,23.67-13.69c25.02-6.14,52.92,5.76,67.35,27.1
		c14.43,21.34,15.47,50.49,4.29,73.7c11.79-6.31,27.81-3.15,36.33,7.14c8.52,10.3,8.61,26.63,0.21,37.03
		c20.53-8.3,44.41-7.94,64.68,1c1.05,0.46,2.15,0.99,2.75,1.97c1.06,1.7,0.08,4.08-1.58,5.22c-1.65,1.14-3.75,1.37-5.74,1.56
		c19.36-1.11,38.85,0.2,57.89,3.88c2.62,0.51,6.02,2.6,4.7,4.92c-40.56-0.95-81.13-1.88-121.71-1.76
		c-47.1,0.13-94.23,1.68-141.11,6.31c-25.76,2.55-50.6,8.74-76.56,10.06c-25.75,1.3-52.09-0.28-76.93-7.6
		c-28.39-8.37-55.5-36.95-40.13-67.61c4.62-9.22,14.7-16.1,24.94-14.86c-20.75-20.3-28.62-52.04-22.15-80.34
		s26.28-52.73,51.44-67.21c38.98-22.44,96.53-27.39,128.94,9.14c14.48,16.32,23.1,41.53,18.88,63.36"/>
	<path class="st1" d="M1664.79,517.25c5.46-1.34,12.37-2.36,17.72-1.5c-0.16,0.71-0.63,0.93-1.32,1.13
		c-12.6,3.57-22.87,14.38-25.8,27.14c17.38-4.07,36.33,5.69,45.36,21.09s8.86,35.14,2.02,51.63c17.32-22.86,19.35-56.24,4.91-81.02
		c16.52,11.07,23.75,32.06,24.65,51.92c0.87,19.21-3.23,38.62-11.8,55.84c4.92-4.66,10.96-8.26,17.6-9.62s13.86-0.32,19.47,3.48
		c10.56,7.16,12.93,22.6,8.17,34.44c16.32-4.4,32.01-7.95,49.05-5.7c2.47,0.33,5.16,0.89,6.68,2.87c1.51,1.97,0.61,5.67-1.88,5.74
		c4.59-0.36,9.2,0.12,13.78,0.58c14.54,1.49,29.08,2.99,43.62,4.49c-34.36-0.34-68.73-0.85-103.05-0.75
		c-47.09,0.13-94.23,1.68-141.11,6.31c-25.76,2.55-50.6,8.74-76.56,10.06c-25.75,1.3-52.09-0.28-76.93-7.6
		c-28.39-8.37-55.5-36.95-40.13-67.61c4.62-9.22,14.7-16.1,24.94-14.86c-20.75-20.3-28.63-52.04-22.16-80.34
		s26.29-52.73,51.44-67.21c15.89-9.14,35.61-16.63,54.14-16.93c-16.56,3.64-32.59,9.62-47.48,17.72
		c-5.03,2.73-35.37,20.37-23.25,27.09c2.2,1.22,4.84,1.21,7.35,1.17c17.13-0.22,34.59,0.03,50.85,5.42
		c15.4,5.1,32.11,16.47,37.18,32.71c-26.86,7.48-53.3,28.77-61.92,55.88c3.64-8.62,13.04-16.94,20.17-22.79
		c8.06-6.61,17.37-11.69,27.33-14.77c11.41-3.52,23.57-4.97,35.45-3.37c11.68,1.57,21.87,7.3,31.63,13.57
		c4.13-9.43,10.57-18.13,18.27-25.21C1649.11,522.78,1656.96,519.17,1664.79,517.25z"/>
</g>
<g>
	<path class="st0" d="M1256.1,829.12c8.49,1.19,17.32,0.85,25.87,1.11c10.14,0.3,20.28,0.61,30.42,0.91
		c11.18,25.42,31.41,46.95,57.86,56.54c31.37,11.38,68.43,4.63,90.43-21.41c4.33-5.13,7.99-10.8,10.81-16.85
		c6.08,4.04,13.01,7.93,20.53,7.67c6.99-0.24,13.68-4.06,18.16-9.31c5.42-6.36,7.55-14.43,6.49-22.18
		c18.62,12.17,41.69,16.91,63.71,13.89c23.43-3.21,48.89-15.63,56.67-39.51c3.26-10,3.28-20.92,0.02-30.85
		c19.47-12.38,31.01-35.85,27.15-58.89c-4.04-24.1-23.62-43.57-48.09-46.06c-7.52-0.77-15.09,0.07-22.19,2.39
		c-4.19-11.56-14.57-20.71-26.9-22.56c-14.41-2.16-29.22,4.86-35.93,17.94c-2.98,5.81-4.3,12.26-3.86,18.7
		c-6.22-7.06-14.47-12.35-23.62-14.82c-19.33-5.21-40.37,1.51-53.76,16.2c-4.33,4.75-7.87,10.18-10.5,16.02
		c-2.14-14.77-6.85-29.26-16.48-40.84c-6.56-7.88-15.27-13.52-24.67-17.44c-10.21-4.26-21.4-7.08-32.48-7.58
		c-19.29-0.88-38.2,7.37-51.76,20.91c-14.29,14.28-21.72,34.13-22.18,54.18c-0.45,19.53,5.51,40.91,19.24,55.33
		c-5.2-1.8-10.45-2.75-16.23-1.82c-6.93,1.12-13.59,4.66-18.29,9.89c-7.97,8.87-9.49,21.62-5.16,32.3
		c-7.55-2.34-15.95-2.39-23.39,0.33c-3.21,1.17-6.15,3.02-7.53,6.27c-1.14,2.68-1.06,5.75-0.12,8.49
		C1242.72,824.95,1249.24,828.16,1256.1,829.12z"/>
	<path class="st1" d="M1527.27,674.63c0,0-2.61,8.28,7.87,24.59c0,0-17.47-1.16-25.62,15.72c-8.15,16.89,7.57,41.61,7.57,41.61
		s-22.12-4.93-23.29-33.46s26.2-34.93,26.2-34.93S1512.99,672.75,1527.27,674.63z"/>
	<g>
		<path class="st1" d="M1464.1,814.6c0,0-36.1,46.47-86.17,31.33c-50.07-15.14-52.98-55.31-52.98-55.31s-4.66,18.63-34.35,20.38
			c-29.69,1.74-50.15-7.45-50.15-7.45c-1.14,2.68-1.06,5.75-0.12,8.49c2.39,6.91,8.91,10.12,15.77,11.08
			c8.49,1.19,17.32,0.85,25.87,1.11c10.14,0.3,20.28,0.61,30.42,0.91c11.18,25.42,31.41,46.95,57.86,56.54
			c31.37,11.38,68.43,4.63,90.43-21.41c4.33-5.13,7.99-10.8,10.81-16.85c6.08,4.04,13.01,7.93,20.53,7.67
			c6.99-0.24,13.68-4.06,18.16-9.31c5.32-6.24,7.46-14.12,6.54-21.73c-1.31-4.99-2.29-8.46-2.29-8.46
			C1495.51,833.13,1464.1,814.6,1464.1,814.6z"/>
	</g>
</g>
<g>
	<path class="st1" d="M1235.36,987.34c0-0.03,0-0.06,0-0.09c0-0.34,0.01-0.69,0.03-1.05c0.01-0.08,0.02-0.17,0.02-0.26
		c0.02-0.31,0.05-0.62,0.08-0.94c0.02-0.16,0.05-0.33,0.07-0.49c0.04-0.25,0.07-0.5,0.11-0.76c0.05-0.27,0.1-0.54,0.16-0.81
		c0.04-0.17,0.06-0.33,0.1-0.5c0.1-0.45,0.21-0.91,0.34-1.37c1.23-4.53,3.24-8.49,5.85-11.92c1.04-1.38,2.18-2.67,3.41-3.88
		c0.61-0.61,1.25-1.19,1.9-1.76c15.68-13.57,42.72-15.73,61.32-11.26c-0.32-1.85-0.42-3.64-0.34-5.39
		c0.8-16.61,18.81-28.8,37.02-36.69c0.96-0.41,1.92-0.82,2.87-1.21c1.92-0.78,3.82-1.52,5.7-2.21c7.52-2.75,14.59-4.74,19.96-5.98
		c3.79-21.03,22.55-39.11,42.58-45.54c0.37-0.12,0.77-0.23,1.18-0.34c0.13-0.03,0.27-0.07,0.41-0.1c0.3-0.07,0.61-0.14,0.93-0.21
		c0.17-0.04,0.34-0.07,0.51-0.1c0.32-0.06,0.64-0.12,0.97-0.18c0.19-0.03,0.38-0.06,0.57-0.09c0.35-0.06,0.72-0.11,1.09-0.16
		c0.19-0.02,0.37-0.05,0.56-0.07c0.48-0.06,0.98-0.11,1.48-0.16c0.09-0.01,0.18-0.02,0.27-0.03c0.59-0.06,1.19-0.1,1.81-0.15
		c0.24-0.02,0.48-0.03,0.72-0.04c0.4-0.02,0.79-0.05,1.2-0.07c0.29-0.01,0.59-0.02,0.89-0.03c0.36-0.01,0.73-0.02,1.1-0.03
		c0.33-0.01,0.65-0.01,0.98-0.02c0.35,0,0.7-0.01,1.06-0.01c0.35,0,0.71,0,1.06,0c0.32,0,0.65,0.01,0.98,0.02
		c0.92,0.02,1.84,0.05,2.78,0.09c0.11,0.01,0.22,0.01,0.33,0.01c0.47,0.02,0.95,0.06,1.42,0.09c0.24,0.02,0.49,0.03,0.73,0.05
		c0.48,0.03,0.96,0.08,1.44,0.12c0.23,0.02,0.46,0.04,0.7,0.07c0.5,0.05,1,0.1,1.5,0.16c0.2,0.02,0.39,0.05,0.59,0.07
		c0.54,0.07,1.08,0.13,1.61,0.21c0.07,0.01,0.15,0.02,0.22,0.03c1.93,0.27,3.84,0.61,5.7,1.02c0.03,0.01,0.06,0.01,0.1,0.02
		c0.58,0.13,1.15,0.26,1.71,0.4c0.11,0.03,0.21,0.05,0.32,0.08c0.55,0.14,1.1,0.29,1.64,0.44c0.09,0.03,0.19,0.06,0.28,0.08
		c2.98,0.87,5.76,1.94,8.18,3.26c0.07,0.04,0.14,0.08,0.21,0.12c0.44,0.24,0.86,0.49,1.27,0.75c0.08,0.05,0.15,0.1,0.23,0.15
		c0.41,0.27,0.82,0.54,1.2,0.82c0.03,0.02,0.05,0.04,0.08,0.06c0.14,0.1,0.28,0.21,0.42,0.32c2.18,0.99,4.31,2.13,6.41,3.42
		c0.15-1.2,0.34-2.4,0.55-3.62c0.05-0.3,0.1-0.59,0.15-0.89c0.12-0.68,0.25-1.36,0.38-2.04c0.23-1.15,0.47-2.3,0.73-3.46l0,0
		c0.11-0.47,0.23-0.94,0.35-1.42c0.23-0.93,0.46-1.87,0.71-2.8c0.16-0.61,0.33-1.22,0.5-1.82c0.23-0.84,0.48-1.68,0.73-2.52
		c0.18-0.59,0.35-1.18,0.53-1.77c0.37-1.19,0.75-2.38,1.15-3.57c0.2-0.6,0.41-1.2,0.62-1.81c0.33-0.94,0.65-1.88,0.99-2.82
		c0.22-0.61,0.45-1.21,0.67-1.82c0.31-0.84,0.63-1.68,0.96-2.52c0.22-0.57,0.44-1.14,0.67-1.71c0.47-1.19,0.95-2.37,1.44-3.55
		c0.2-0.49,0.41-0.97,0.61-1.46c0.43-1.02,0.86-2.03,1.3-3.04c0.23-0.52,0.46-1.04,0.69-1.57c0.39-0.88,0.78-1.76,1.18-2.62
		c0.22-0.48,0.44-0.96,0.65-1.43c0.58-1.25,1.16-2.49,1.74-3.72c0.09-0.19,0.18-0.37,0.27-0.56c0.54-1.13,1.08-2.25,1.63-3.34
		c0.2-0.41,0.4-0.81,0.6-1.22c0.44-0.89,0.89-1.77,1.33-2.63c0.18-0.36,0.37-0.73,0.55-1.08c0.6-1.18,1.21-2.34,1.8-3.47
		c21.38-40.62,55.3-83.43,100.21-98.96c1.3-0.45,2.62-0.87,3.93-1.27c0.43-0.13,0.85-0.25,1.28-0.38c0.9-0.26,1.81-0.52,2.71-0.76
		c0.5-0.13,1.01-0.26,1.51-0.39c0.86-0.22,1.71-0.42,2.57-0.62c0.51-0.12,1.03-0.23,1.54-0.34c0.91-0.19,1.82-0.37,2.73-0.54
		c0.46-0.09,0.91-0.18,1.37-0.26c1.33-0.23,2.66-0.45,4-0.64c0.35-0.05,0.71-0.09,1.06-0.13c1.01-0.13,2.02-0.26,3.03-0.37
		c0.58-0.06,1.15-0.11,1.73-0.16c0.79-0.07,1.58-0.14,2.38-0.2c0.63-0.05,1.27-0.08,1.9-0.12c0.74-0.04,1.48-0.08,2.22-0.11
		c0.66-0.03,1.32-0.05,1.98-0.07c0.72-0.02,1.44-0.02,2.16-0.02c0.67,0,1.34-0.01,2.02-0.01c0.81,0.01,1.62,0.04,2.42,0.06
		c1.24,0.04,2.47,0.09,3.71,0.17c0.57,0.03,1.13,0.06,1.7,0.1c0.82,0.06,1.64,0.14,2.45,0.21c0.52,0.05,1.05,0.1,1.57,0.15
		c0.85,0.09,1.7,0.19,2.54,0.29c0.46,0.06,0.92,0.12,1.38,0.19c0.91,0.12,1.81,0.25,2.71,0.4c0.28,0.04,0.56,0.1,0.84,0.14
		c3.35,0.56,6.68,1.25,9.97,2.08c0.14,0.03,0.27,0.07,0.41,0.1c1.05,0.27,2.1,0.56,3.14,0.85c0.22,0.06,0.43,0.12,0.65,0.19
		c1.05,0.3,2.1,0.62,3.15,0.95c0.13,0.04,0.26,0.09,0.4,0.13c5.82,1.88,11.49,4.19,16.93,6.94c0.02,0.01,0.03,0.02,0.05,0.02
		c6.63,3.34,12.92,7.32,18.74,11.92l0,0l0,0c6.48,5.12,12.4,10.99,17.53,17.63c20.11,26.01,20.85,53.6,1.83,79.92
		c32.09-11.77,92.23,33.01,72.76,66.81c9.25,4.5,9.11,16.02,3.99,22.42c8.63,5.5,18.22,19,20.29,23.54
		c6.42,14.1,5.73,26.07,1.47,40.46c8.02,4.52,1.62,11.16-4.7,13.05c17.13,8.97,39.85,9.44,57.2,19.62
		c-21.41,8.17-52.17-3.03-75.58-1.34c-12.88,0.93-30.56,3.67-43-1.05l11.27-2.91c-53.55,3.78-108.48-1.41-162.34,0.41
		c-58.85,1.98-117.63,1.85-176.41,2.13c-46.74,0.22-93.29,0.29-139.89-0.4C1277.94,1000.57,1235.41,1009.56,1235.36,987.34z"/>
	<g>
		<path class="st0" d="M1751.78,839.93c-18.6-28.76-54.25-40.25-88.98-32.52c-41.97,9.34-59.73,40.51-63.45,80.2
			c-7.13-15.68-28.38-11.88-39.56-4.42c-17.34,11.59-19.21,24.25-24.33,42.31c4.05-12.61,21.62-23.29,33.35-25.67
			c15.25-3.09,29.48,3.83,36.55,10.73c9.46-33.37,34.19-74.24,69.34-85.83c16.04-5.29,34.48-4.41,50.52,0.36
			C1735.25,828.06,1745.47,832.88,1751.78,839.93"/>
	</g>
	<path class="st0" d="M1486.65,918.98c-29.8,0-53.96,24.16-53.96,53.96c0,7.51,1.54,14.65,4.3,21.15
		c-7.06-9.12-11.27-20.56-11.27-32.98c0-29.8,24.16-53.96,53.96-53.96c22.3,0,41.43,13.53,49.66,32.82
		C1519.47,927.2,1504.03,918.98,1486.65,918.98z"/>
	<path class="st0" d="M1242.13,969.14c1.04-1.38,2.18-2.67,3.41-3.88c0.61-0.61,1.25-1.19,1.9-1.76
		c15.68-13.57,42.72-15.73,61.32-11.26c-0.32-1.85-0.42-3.64-0.34-5.39c0.8-16.61,18.81-28.8,37.02-36.69
		c0.96-0.41,1.92-0.82,2.87-1.21c1.92-0.78,3.82-1.52,5.7-2.21c7.52-2.75,14.59-4.74,19.96-5.98c3.79-21.03,22.55-39.11,42.58-45.54
		c0.37-0.12,0.77-0.23,1.18-0.34c0.13-0.03,0.27-0.07,0.41-0.1c0.3-0.07,0.61-0.14,0.93-0.21c0.17-0.04,0.34-0.07,0.51-0.1
		c0.32-0.06,0.64-0.12,0.97-0.18c0.19-0.03,0.38-0.06,0.57-0.09c0.35-0.06,0.72-0.11,1.09-0.16c0.19-0.02,0.37-0.05,0.56-0.07
		c0.48-0.06,0.98-0.11,1.48-0.16c0.09-0.01,0.18-0.02,0.27-0.03c0.59-0.06,1.19-0.1,1.81-0.15c0.24-0.02,0.48-0.03,0.72-0.04
		c0.4-0.02,0.79-0.05,1.2-0.07c0.29-0.01,0.59-0.02,0.89-0.03c0.36-0.01,0.73-0.02,1.1-0.03c0.33-0.01,0.65-0.01,0.98-0.02
		c0.35,0,0.7-0.01,1.06-0.01c0.35,0,0.71,0,1.06,0c0.32,0,0.65,0.01,0.98,0.02c0.92,0.02,1.84,0.05,2.78,0.09
		c0.11,0.01,0.22,0.01,0.33,0.01c0.47,0.02,0.95,0.06,1.42,0.09c0.24,0.02,0.49,0.03,0.73,0.05c0.48,0.03,0.96,0.08,1.44,0.12
		c0.23,0.02,0.46,0.04,0.7,0.07c0.5,0.05,1,0.1,1.5,0.16c0.2,0.02,0.39,0.05,0.59,0.07c0.54,0.07,1.08,0.13,1.61,0.21
		c0.07,0.01,0.15,0.02,0.22,0.03c1.93,0.27,3.84,0.61,5.7,1.02c0.03,0.01,0.06,0.01,0.1,0.02c0.58,0.13,1.15,0.26,1.71,0.4
		c0.11,0.03,0.21,0.05,0.32,0.08c0.55,0.14,1.1,0.29,1.64,0.44c0.09,0.03,0.19,0.06,0.28,0.08c2.98,0.87,5.76,1.94,8.18,3.26
		c0.07,0.04,0.14,0.08,0.21,0.12c0.44,0.24,0.86,0.49,1.27,0.75c0.08,0.05,0.15,0.1,0.23,0.15c0.41,0.27,0.82,0.54,1.2,0.82
		c0.03,0.02,0.05,0.04,0.08,0.06c0.14,0.1,0.28,0.21,0.42,0.32c2.18,0.99,4.31,2.13,6.41,3.42c0.15-1.2,0.34-2.4,0.55-3.62
		c0.05-0.3,0.1-0.59,0.15-0.89c0.12-0.68,0.25-1.36,0.38-2.04c0.23-1.15,0.47-2.3,0.73-3.46l0,0c0.11-0.47,0.23-0.94,0.35-1.42
		c0.23-0.93,0.46-1.87,0.71-2.8c0.16-0.61,0.33-1.22,0.5-1.82c0.23-0.84,0.48-1.68,0.73-2.52c0.18-0.59,0.35-1.18,0.53-1.77
		c0.37-1.19,0.75-2.38,1.15-3.57c0.2-0.6,0.41-1.2,0.62-1.81c0.33-0.94,0.65-1.88,0.99-2.82c0.22-0.61,0.45-1.21,0.67-1.82
		c0.31-0.84,0.63-1.68,0.96-2.52c0.22-0.57,0.44-1.14,0.67-1.71c0.47-1.19,0.95-2.37,1.44-3.55c0.2-0.49,0.41-0.97,0.61-1.46
		c0.43-1.02,0.86-2.03,1.3-3.04c0.23-0.52,0.46-1.04,0.69-1.57c0.39-0.88,0.78-1.76,1.18-2.62c0.22-0.48,0.44-0.96,0.65-1.43
		c0.58-1.25,1.16-2.49,1.74-3.72c0.09-0.19,0.18-0.37,0.27-0.56c0.54-1.13,1.08-2.25,1.63-3.34c0.2-0.41,0.4-0.81,0.6-1.22
		c0.44-0.89,0.89-1.77,1.33-2.63c0.18-0.36,0.37-0.73,0.55-1.08c0.6-1.18,1.21-2.34,1.8-3.47c21.38-40.62,55.3-83.43,100.21-98.96
		c1.3-0.45,2.62-0.87,3.93-1.27c0.43-0.13,0.85-0.25,1.28-0.38c0.9-0.26,1.81-0.52,2.71-0.76c0.5-0.13,1.01-0.26,1.51-0.39
		c0.86-0.22,1.71-0.42,2.57-0.62c0.51-0.12,1.03-0.23,1.54-0.34c0.91-0.19,1.82-0.37,2.73-0.54c0.46-0.09,0.91-0.18,1.37-0.26
		c1.33-0.23,2.66-0.45,4-0.64c0.35-0.05,0.71-0.09,1.06-0.13c1.01-0.13,2.02-0.26,3.03-0.37c0.58-0.06,1.15-0.11,1.73-0.16
		c0.79-0.07,1.58-0.14,2.38-0.2c0.63-0.05,1.27-0.08,1.9-0.12c0.74-0.04,1.48-0.08,2.22-0.11c0.66-0.03,1.32-0.05,1.98-0.07
		c0.72-0.02,1.44-0.02,2.16-0.02c0.67,0,1.34-0.01,2.02-0.01c0.81,0.01,1.62,0.04,2.42,0.06c1.24,0.04,2.47,0.09,3.71,0.17
		c0.57,0.03,1.13,0.06,1.7,0.1c0.82,0.06,1.64,0.14,2.45,0.21c0.52,0.05,1.05,0.1,1.57,0.15c0.85,0.09,1.7,0.19,2.54,0.29
		c0.46,0.06,0.92,0.12,1.38,0.19c0.91,0.12,1.81,0.25,2.71,0.4c0.28,0.04,0.56,0.1,0.84,0.14c3.35,0.56,6.68,1.25,9.97,2.08
		c0.14,0.03,0.27,0.07,0.41,0.1c1.05,0.27,2.1,0.56,3.14,0.85c0.22,0.06,0.43,0.12,0.65,0.19c1.05,0.3,2.1,0.62,3.15,0.95
		c0.13,0.04,0.26,0.09,0.4,0.13c5.82,1.88,11.49,4.19,16.93,6.94c0.02,0.01,0.03,0.02,0.05,0.02c3.26,1.65,6.44,3.45,9.53,5.4
		c-32.78-6.78-77.88-8.76-118.62,14.89c-75.2,43.64-77.06,161.54-77.06,161.54s-35.28-25.07-76.13-17.18s-40.85,47.81-40.85,47.81
		s-41.78-2.32-53.38,19.03c-11.61,21.35,29.71,32.49,29.71,32.49s-35.75,2.32-72.42-9.28c-20.54-6.5-41.07-1.35-52.88,10.55
		C1240.03,972.2,1241.01,970.61,1242.13,969.14z"/>
</g>
<path class="st0" d="M1910,1062.86c-239.84-31.64-869.94-9.88-889.55-9.19h-0.38c2.7-1.03,56.27-21.22,67.42-28.18
	c11.38-7.08,48.74-10.59,48.74-10.59s30.87-48.94,86.6-57.92c55.7-9.03,35.86,44.88,35.86,44.88s14.1-18.64,32.44-24.16
	c18.32-5.47,28.99,11.6,28.99,11.6s16.08-37.69,52.72-48.68c36.7-10.99,49.26,50.44,49.26,50.44s33.33-175.08,136.74-190.08
	c103.42-15,74.03,153.68,74.03,153.68s60.56-61.51,127.1-43.61c66.54,17.9,51.47,114.34,51.47,114.34
	c30.87-10.73,53.49-5.2,69.17,4.53C1901.27,1042.7,1910,1062.86,1910,1062.86"/>
<path class="st1" d="M1020.26,1053.67l168.13-17.5c0,0,5.1-29.89,28.98-22.51c23.89,7.34,27.07,17.25,27.07,17.25
	s6.86-5.73,15.51-3.72c8.69,2.01,24.83,11.24,24.83,11.24s35.46-66.1,86.27-56.71c50.87,9.35,42.68,44.62,42.68,44.62
	s31.63-18.25,41.27-12.38c9.59,5.91,17.43,11.36,17.43,11.36s51.92-176.24,109.68-157.35c57.77,18.88,46.69,129.67,46.69,129.67
	s31.13-23.86,36.96-9.7c5.87,14.17,8.65,25.81,8.65,25.81s47.75-87.67,86.28-56.76c38.55,30.87,42.47,84.81,42.47,84.81
	s42.26-14.42,77.28-11.86c20.64,12.78,29.38,32.94,29.38,32.94C1669.97,1031.22,1039.87,1052.98,1020.26,1053.67"/>
<g>
	<path class="st0" d="M1404.4,251.99c5.33-6.16,12.91-10.11,20.83-12.05c22.02-5.41,46.58,5.07,59.27,23.85
		c12.7,18.78,13.61,44.44,3.77,64.86c10.37-5.55,24.48-2.78,31.98,6.29c7.5,9.06,7.58,23.44,0.19,32.59
		c18.07-7.31,39.09-6.98,56.92,0.88c0.92,0.4,1.89,0.88,2.42,1.73c0.93,1.5,0.07,3.59-1.39,4.59c-1.45,1-3.3,1.21-5.05,1.37
		c17.04-0.97,34.2,0.18,50.95,3.42c2.31,0.45,5.3,2.29,4.13,4.33c-35.7-0.83-71.4-1.66-107.11-1.55
		c-41.45,0.12-82.93,1.48-124.19,5.56c-22.67,2.24-44.54,7.69-67.38,8.85c-22.66,1.15-45.85-0.24-67.7-6.69
		c-24.98-7.37-48.84-32.52-35.32-59.5c4.07-8.11,12.94-14.17,21.95-13.08c-18.26-17.86-25.19-45.8-19.5-70.71
		c5.69-24.91,23.13-46.4,45.27-59.15c34.31-19.75,84.95-24.1,113.48,8.04c12.75,14.36,20.33,36.55,16.62,55.76"/>
	<path class="st1" d="M1425.19,239.95c4.8-1.18,10.89-2.08,15.59-1.32c-0.14,0.62-0.56,0.82-1.16,0.99
		c-11.09,3.14-20.13,12.65-22.7,23.89c15.3-3.58,31.98,5,39.92,18.56c7.95,13.55,7.8,30.93,1.77,45.44
		c15.25-20.12,17.03-49.5,4.32-71.31c14.54,9.74,20.9,28.21,21.7,45.69c0.77,16.91-2.84,33.99-10.38,49.14
		c4.33-4.1,9.65-7.27,15.49-8.46c5.84-1.19,12.2-0.28,17.14,3.06c9.3,6.3,11.38,19.89,7.19,30.31c14.36-3.87,28.17-7,43.16-5.02
		c2.17,0.29,4.54,0.78,5.88,2.52c1.33,1.74,0.53,4.99-1.66,5.05c4.04-0.32,8.1,0.1,12.13,0.51c12.79,1.32,25.59,2.63,38.39,3.95
		c-30.24-0.3-60.49-0.75-90.69-0.66c-41.45,0.12-82.93,1.48-124.19,5.56c-22.67,2.24-44.53,7.69-67.38,8.85
		c-22.66,1.15-45.85-0.24-67.7-6.69c-24.98-7.37-48.84-32.52-35.32-59.5c4.07-8.11,12.94-14.17,21.95-13.08
		c-18.26-17.86-25.19-45.8-19.5-70.71c5.7-24.91,23.13-46.4,45.27-59.15c13.98-8.05,31.34-14.63,47.65-14.9
		c-14.57,3.2-28.68,8.47-41.79,15.6c-4.42,2.4-31.13,17.93-20.46,23.84c1.93,1.07,4.26,1.06,6.47,1.03
		c15.07-0.2,30.44,0.03,44.75,4.77c13.56,4.49,28.26,14.5,32.72,28.79c-23.64,6.58-46.91,25.32-54.49,49.18
		c3.21-7.58,11.48-14.91,17.75-20.06c7.09-5.81,15.29-10.29,24.06-12.99c10.04-3.1,20.74-4.37,31.2-2.96
		c10.28,1.38,19.24,6.42,27.83,11.94c3.63-8.3,9.31-15.96,16.08-22.19C1411.4,244.81,1418.31,241.64,1425.19,239.95z"/>
</g>
</svg>
