<?xml version="1.0" encoding="utf-8"?>
<!-- Generator: Adobe Illustrator 23.0.6, SVG Export Plug-In . SVG Version: 6.00 Build 0)  -->
<svg version="1.1" id="Calque_1" xmlns="http://www.w3.org/2000/svg" xmlns:xlink="http://www.w3.org/1999/xlink" x="0px" y="0px"
	 viewBox="0 0 823.28 810.37" style="enable-background:new 0 0 823.28 810.37;" xml:space="preserve">
<style type="text/css">
	.st0{fill:#FED300;}
	.st1{fill:#FFFFFF;}
	.st2{fill:#EDF6F9;}
</style>
<g>
	<path class="st0" d="M377.98,332.81c0,0-98.23,8.65-123.04,95.74c-24.82,87.09,45.53,119.92,113.91,114.95
		s175.95-40.56,144.58-121.88C482.05,340.3,427,326.7,377.98,332.81z"/>
	<path class="st0" d="M441.09,218.95c0,0-30.6,37.45-34.3,62.67c-3.7,25.22,30.01,34.2,43.25-14.03
		C463.28,219.35,455.72,204.49,441.09,218.95z"/>
	<path class="st0" d="M543.23,268.29c0,0-45.37,16.74-61.36,36.59c-15.99,19.85,8.5,44.7,44.39,9.86
		C562.15,279.9,563.17,263.26,543.23,268.29z"/>
	<path class="st0" d="M367.36,572.31c0,0-14.42,46.17-8.44,70.95c5.97,24.78,40.6,20.53,34.89-29.16
		C388.09,564.41,375.53,553.44,367.36,572.31z"/>
	<path class="st0" d="M596.85,359.64c0,0-39.75,1.03-57.77,12.23c-18.02,11.2-6.3,36.95,31.35,19.36
		C608.08,373.64,613.66,360.99,596.85,359.64z"/>
	<path class="st0" d="M542.87,462.45c0,0,36.08,26.19,59.74,28.52c23.67,2.32,30.81-28.58-14.69-38.61
		C542.43,442.33,528.84,449.78,542.87,462.45z"/>
	<path class="st0" d="M554.8,530.55c0,0-39.63-28.97-52.43-18.28s-9.58,26.73,10.57,38.56c20.16,11.83,42.44,18.78,47.98,6.1
		C566.48,544.25,563.03,536.08,554.8,530.55z"/>
	<path class="st0" d="M488.27,607.98c0,0-15.69-46.51-32.31-45.16c-16.62,1.36-23.24,16.32-13.59,37.6
		c9.65,21.28,23.86,39.81,35.7,32.64C489.92,625.9,491.8,617.24,488.27,607.98z"/>
	<path class="st0" d="M333.17,215.87c0,0,27.27,39.94,28.79,65.39c1.52,25.44-32.84,31.5-41.88-17.7
		C311.03,214.36,319.84,200.2,333.17,215.87z"/>
	<path class="st0" d="M229.23,256.47c0,0,43.77,20.58,57.99,41.73c14.22,21.15-12.31,43.81-45.07,6.01
		C209.39,266.4,209.8,249.73,229.23,256.47z"/>
	<path class="st0" d="M175.17,342.17c0,0,39.52,4.44,56.51,17.15c16.99,12.7,3.1,37.36-32.9,16.6
		C162.78,355.15,158.31,342.07,175.17,342.17z"/>
	<path class="st0" d="M218.85,457.88c0,0-38.19,22.99-61.97,23.28c-23.78,0.28-28.24-31.13,17.95-37.2
		C221.02,437.88,233.92,446.47,218.85,457.88z"/>
	<path class="st0" d="M196.3,520.01c0,0,41.98-25.45,53.81-13.71c11.83,11.75,7.25,27.46-13.85,37.51
		c-21.1,10.05-43.9,15.07-48.33,1.95C183.49,532.66,187.63,524.82,196.3,520.01z"/>
	<path class="st0" d="M270.45,598.48c0,0,19.63-44.99,36.07-42.21c16.44,2.78,21.75,18.26,10.3,38.63
		c-11.45,20.38-27.19,37.62-38.37,29.45C267.27,616.2,266.14,607.41,270.45,598.48z"/>
</g>
<g>
	<path class="st1" d="M692.09,473.95c18.34,6.62,30.66,26.92,28.08,46.24c11.68-2.52,24.03-3.17,35.48,0.26
		c11.45,3.43,21.91,11.37,26.47,22.42c4.56,11.05,2.18,25.13-7.03,32.74c6.96-1.21,14.33-0.89,20.78,1.98
		c6.45,2.88,11.84,8.55,13.35,15.45c2.17,9.88-4.02,20.12-12.47,25.69c-12.03,7.92-27.68,7.02-41.54,8.39
		c-52.29,5.19-104.62,10.03-156.97,14.52c-49.76,4.26-99.62,7.35-148.97,14.98c-44.21,6.83-86.08,17.52-131.29,12.74
		c-11.17-1.18-22.61-3.17-32.13-9.13c-2.93-1.83-5.96-4.93-4.96-8.24c0.71-2.37,3.2-3.67,5.49-4.63c9.77-4.11,20.14-6.79,30.68-7.96
		c-68.94,1.85-137.45,17.28-206.29,13.09c-18.86-1.15-37.82-3.82-55.44-10.63c-9.23-3.57-18.38-9-22.88-18.16
		c-2.69-5.47-2.36-21.87,8-19.41c-7.31-1.74-11.91-10.71-9.05-17.66c2.86-6.95,12.44-10.09,18.85-6.18
		c-4.51-6.19-8.32-13.19-9.03-20.82c-0.71-7.62,2.23-15.94,8.73-19.98c6.5-4.05,16.49-2.2,19.81,4.7
		c-12.51-25.47-10.24-56.07-3.37-83.61c9.63-38.57,28.56-75.85,59.11-101.29c25.39-21.14,56.76-31.6,89.87-25.13
		c20.33,3.97,39.73,15.89,49.43,34.2c3.74-9.34,14.75-14.21,24.75-15.34c21.61-2.46,44.21,4.06,60.85,18.08
		c16.63,14.02,26.93,35.44,26.96,57.19c0.02,14.55-4.3,28.72-8.58,42.62c7.89-0.82,15.58,4.62,18.91,11.82
		c3.46,7.48,3.16,17.38,0.68,25.09c14.87-13.29,38.13-18.04,55.38-8.05c13.66,7.91,19.19,21.91,22.02,36.54
		c-0.62-3.22,8.79-13.21,10.82-15.73c16.7-20.76,38.17-36.42,63.28-45.77c33.26-12.38,76.43-9.58,101.78,17.64
		c-1.31-1.41,6.72-9.67,7.92-10.73c3.77-3.35,8.57-5.83,13.28-7.54C672.17,470.95,682.69,470.56,692.09,473.95z"/>
	<path class="st2" d="M809.21,593.04c2.17,9.88-4.02,20.12-12.47,25.69c-12.03,7.92-27.68,7.02-41.54,8.39
		c-52.29,5.19-104.62,10.03-156.97,14.52c-49.76,4.26-99.62,7.35-148.97,14.98c-44.21,6.83-86.08,17.52-131.29,12.74
		c-11.17-1.18-22.61-3.17-32.13-9.13c-2.93-1.83-5.96-4.93-4.96-8.24c0.71-2.37,3.2-3.67,5.49-4.63c9.77-4.11,20.14-6.79,30.68-7.96
		c-68.94,1.85-137.45,17.28-206.29,13.09c-18.86-1.15-37.82-3.82-55.44-10.63c-9.23-3.57-18.38-9-22.88-18.17
		c-3.6-7.33-1.52-18.78,7.65-20.24c-1.87,3.35-1.21,7.71,0.91,10.91c2.12,3.2,5.49,5.38,8.99,6.94c5.65,2.52,11.92,3.66,18.1,3.27
		c-7.84-5.04-15.64-11.24-18.86-19.99c-0.56-1.53-0.93-3.37,0.04-4.67c1.65-2.21,5.12-0.85,7.5,0.54c11.13,6.5,24.11,9.8,36.99,9.42
		c-8.73-3.59-16.62-9.2-22.88-16.26c-3.07-3.46-5.87-8.28-3.91-12.48c1.59-3.39,5.73-4.81,9.47-4.86c7.47-0.1,14.49,4.09,18.7,10.16
		c-1.91-11.15-9.43-20.36-16.44-29.23c-10.71-13.55-15.1-26.54-16.95-43.58c-1.91-17.7,0.33-35.67,4.63-52.88
		c9.63-38.57,28.56-75.85,59.11-101.29c2.09-1.74,4.04-3.01,6.47-4.27c-20.04,20.83-28.06,51.5-24.71,80.21
		c3.35,28.71,17.17,55.49,35.56,77.78c-9.39-38.81,36.85-77.71,68.35-90.75c24.62-10.18,52.99-13.02,77.98-3.78
		c20.21,7.47,37.76,23.6,45.35,43.95c7.25,19.45-1.95,45.25-11.23,62.58c-8.73,16.32-20.45,30.95-31.83,45.46
		c0.84-1.08,5.75-2.91,7.3-3.75c2.98-1.62,6.23-2.67,9.28-4.2c6.59-3.31,12.6-7.64,18.97-11.34c9.54-5.54,21.01-9.75,31.46-6.24
		c3.86,1.3,7.66,4.02,8.49,8.01c0.94,4.48-2.08,8.74-4.93,12.33c10.15-12.79,23.83-20.7,40.65-16.96
		c16.46,3.65,28.96,16.51,30.78,33.14c1.31,11.94,1.22,25.47-1.34,37.25c3.78-17.36,9.23-34.38,16.38-50.65
		c7.69-17.51,16.27-32.51,28.14-47.48c2.1-2.65,4.31-5.24,6.67-7.8c15.07-16.34,37.29-33.96,59.47-38.6
		c-9.05,4.4-17.62,9.76-25.53,15.98c-4.98,3.91-9.7,8.17-13.83,12.97c-17.82,20.73-22.9,49.38-24.8,76.66
		c6.7-13.4,15.14-22.22,27.38-30.94c11.74-8.36,24.76-14.98,38.57-19.16c22.71-6.88,47.63-7.02,70,0.88
		c9.13,3.22,17.95,7.86,24.65,14.83c6.71,6.98,11.13,16.52,10.5,26.19c-0.62,9.55-5.89,18.08-11.01,26.16
		c10.92-7.97,24.45-12.28,37.97-12.11c7.21,0.09,14.82,1.64,20.12,6.54c5.29,4.9,7.22,13.89,2.62,19.45
		c8.9-4.71,19.78-5.51,29.27-2.14c6.5,2.31,9.35,9.96,15.8,10.6c12.83,1.29,25.93-0.27,38.1-4.52c6.77-2.37,13.46-5.71,18.03-11.23
		c4.57-5.52,6.59-13.61,3.45-20.05C805.69,587.87,808.34,589.08,809.21,593.04z"/>
</g>
</svg>
