<?xml version="1.0" encoding="utf-8"?>
<!-- Generator: Adobe Illustrator 23.0.6, SVG Export Plug-In . SVG Version: 6.00 Build 0)  -->
<svg version="1.1" id="Calque_1" xmlns="http://www.w3.org/2000/svg" xmlns:xlink="http://www.w3.org/1999/xlink" x="0px" y="0px"
	 viewBox="0 0 510 502" style="enable-background:new 0 0 510 502;" xml:space="preserve">
<style type="text/css">
	.st0{fill:#F7931E;}
	.st1{fill:#F4A321;}
</style>
<g>
	<path class="st0" d="M378,360c-132.55,0-240-107.45-240-240c0-37.35,8.54-72.71,23.76-104.24C81.42,54.56,26,136.81,26,232
		c0,132.55,107.45,240,240,240c95.19,0,177.44-55.42,216.24-135.76C450.71,351.46,415.35,360,378,360z"/>
</g>
<g>
	<path class="st1" d="M378,360c-132.55,0-240-107.45-240-240c0-37.35,8.54-72.71,23.76-104.24C81.42,54.56,26,136.81,26,232
		C26,435,415.35,360,378,360z"/>
</g>
</svg>
