<?xml version="1.0" encoding="utf-8"?>
<!-- Generator: Adobe Illustrator 23.0.6, SVG Export Plug-In . SVG Version: 6.00 Build 0)  -->
<svg version="1.1" xmlns="http://www.w3.org/2000/svg" xmlns:xlink="http://www.w3.org/1999/xlink" x="0px" y="0px"
	 viewBox="0 0 1132 1080" style="enable-background:new 0 0 1132 1080;" xml:space="preserve">
<style type="text/css">
	.st0{display:none;}
	.st1{fill:#FFFFFF;}
	.st2{opacity:0.46;}
	.st3{opacity:0.19;}
	.st4{opacity:0.25;}
</style>
<g id="Calque_2" class="st0">
</g>
<g id="Calque_1">
	<g>
		<path class="st1" d="M428.17,723.15c0.22,4.44,0.33,8.88,0.5,13.33c0.13,4.44,0.23,8.88,0.3,13.32c0.07,4.44,0.49,8.89,0.1,13.32
			c-0.16,2.22-0.42,4.43-0.74,6.64c-0.33,2.21-0.73,4.42-1.36,6.63c-0.03,0.11-0.15,0.17-0.25,0.14c-0.07-0.02-0.13-0.08-0.14-0.15
			c-0.52-2.23-0.83-4.46-1.06-6.68c-0.23-2.22-0.38-4.45-0.44-6.67c-0.19-4.44,0.43-8.87,0.7-13.3c0.27-4.43,0.57-8.86,0.9-13.29
			c0.37-4.43,0.68-8.86,1.1-13.29c0.01-0.11,0.11-0.19,0.22-0.18C428.09,722.97,428.17,723.05,428.17,723.15z"/>
	</g>
	<g>
		<path class="st1" d="M238.19,1102.98c0.22,4.44,0.33,8.88,0.5,13.33c0.13,4.44,0.23,8.88,0.3,13.32c0.07,4.44,0.49,8.89,0.1,13.32
			c-0.16,2.22-0.42,4.43-0.74,6.64c-0.33,2.21-0.73,4.42-1.36,6.63c-0.03,0.11-0.15,0.17-0.25,0.14c-0.07-0.02-0.13-0.08-0.14-0.15
			c-0.52-2.23-0.83-4.46-1.06-6.68c-0.23-2.22-0.38-4.45-0.44-6.67c-0.19-4.44,0.43-8.87,0.7-13.3c0.27-4.43,0.57-8.86,0.9-13.29
			c0.37-4.43,0.68-8.86,1.1-13.29c0.01-0.11,0.11-0.19,0.22-0.18C238.11,1102.8,238.18,1102.89,238.19,1102.98z"/>
	</g>
	<g>
		<path class="st1" d="M172.29,763.99c0.24,3.37,0.38,6.73,0.57,10.1c0.16,3.37,0.28,6.73,0.37,10.1c0.05,1.68,0.17,3.37,0.27,5.05
			c0.09,1.68,0.06,3.36-0.09,5.04c-0.16,1.68-0.38,3.35-0.71,5.03c-0.32,1.67-0.71,3.35-1.32,5.01c-0.04,0.11-0.16,0.17-0.27,0.13
			c-0.06-0.02-0.11-0.07-0.13-0.13c-0.53-1.69-0.85-3.38-1.09-5.07c-0.25-1.69-0.4-3.37-0.48-5.06c-0.08-1.68-0.03-3.36,0.13-5.04
			c0.17-1.68,0.37-3.35,0.49-5.03c0.24-3.36,0.52-6.71,0.83-10.07c0.35-3.36,0.63-6.71,1.03-10.07c0.01-0.11,0.11-0.19,0.22-0.18
			C172.21,763.82,172.28,763.9,172.29,763.99z"/>
	</g>
	<g>
		<path class="st1" d="M469.21,997.24c0.11,9.68,0.1,19.35,0.16,29.03l-0.04,29.03c-0.04,9.68,0.26,19.36-0.24,29.02
			c-0.25,4.83-0.52,9.66-0.91,14.49c-0.39,4.83-0.85,9.66-1.53,14.48c-0.02,0.11-0.12,0.19-0.23,0.17
			c-0.09-0.01-0.16-0.09-0.17-0.18c-0.47-4.85-0.71-9.69-0.89-14.53c-0.18-4.84-0.24-9.68-0.27-14.52c-0.08-9.68,0.65-19.34,1.04-29
			l1.24-29c0.48-9.67,0.91-19.33,1.44-29c0.01-0.11,0.1-0.19,0.21-0.19C469.13,997.05,469.21,997.13,469.21,997.24z"/>
	</g>
	<g class="st2">
		<path class="st1" d="M305.07,964.69c0.25,3.09,0.4,6.18,0.6,9.28c0.17,3.09,0.3,6.18,0.4,9.27c0.05,1.54,0.18,3.09,0.28,4.64
			c0.09,1.55,0.07,3.09-0.08,4.63c-0.15,1.54-0.37,3.08-0.69,4.62c-0.31,1.54-0.7,3.07-1.31,4.6c-0.04,0.11-0.17,0.16-0.28,0.12
			c-0.06-0.02-0.1-0.07-0.12-0.13c-0.54-1.56-0.86-3.11-1.11-4.66c-0.26-1.55-0.41-3.1-0.49-4.64c-0.08-1.55-0.04-3.09,0.12-4.63
			c0.17-1.54,0.36-3.08,0.48-4.62c0.23-3.08,0.5-6.16,0.8-9.25c0.34-3.08,0.61-6.16,1-9.24c0.01-0.11,0.11-0.19,0.22-0.17
			C304.99,964.52,305.06,964.6,305.07,964.69z"/>
	</g>
	<g class="st2">
		<path class="st1" d="M445.86,941.16c0.22,4.69,0.34,9.38,0.51,14.07c0.14,4.69,0.24,9.38,0.32,14.07
			c0.08,4.69,0.5,9.38,0.12,14.06c-0.19,2.34-0.4,4.68-0.74,7.01c-0.33,2.34-0.73,4.67-1.35,7c-0.03,0.11-0.14,0.18-0.25,0.15
			c-0.08-0.02-0.13-0.08-0.15-0.15c-0.53-2.35-0.83-4.7-1.06-7.05c-0.24-2.35-0.36-4.69-0.45-7.04c-0.2-4.69,0.42-9.36,0.68-14.04
			c0.26-4.68,0.56-9.36,0.88-14.04c0.36-4.68,0.67-9.36,1.08-14.04c0.01-0.11,0.11-0.19,0.22-0.18
			C445.78,940.98,445.85,941.06,445.86,941.16z"/>
	</g>
	<g class="st2">
		<path class="st1" d="M560.23,816.94c0.25,3.09,0.4,6.18,0.6,9.28c0.17,3.09,0.3,6.18,0.4,9.27c0.05,1.54,0.18,3.09,0.28,4.64
			c0.09,1.55,0.07,3.09-0.08,4.63c-0.15,1.54-0.37,3.08-0.69,4.62c-0.31,1.54-0.7,3.07-1.31,4.6c-0.04,0.11-0.17,0.16-0.28,0.12
			c-0.06-0.02-0.1-0.07-0.12-0.13c-0.54-1.56-0.86-3.11-1.11-4.66c-0.26-1.55-0.41-3.1-0.49-4.64c-0.08-1.55-0.04-3.09,0.12-4.63
			c0.17-1.54,0.36-3.08,0.48-4.62c0.23-3.08,0.5-6.16,0.8-9.25c0.34-3.08,0.61-6.16,1-9.24c0.01-0.11,0.11-0.19,0.22-0.17
			C560.15,816.77,560.22,816.85,560.23,816.94z"/>
	</g>
	<g class="st3">
		<path class="st1" d="M400.4,637.3c0.25,3.09,0.4,6.18,0.6,9.28c0.17,3.09,0.3,6.18,0.4,9.27c0.05,1.54,0.18,3.09,0.28,4.64
			c0.09,1.55,0.07,3.09-0.08,4.63c-0.15,1.54-0.37,3.08-0.69,4.62c-0.31,1.54-0.7,3.07-1.31,4.6c-0.04,0.11-0.17,0.16-0.28,0.12
			c-0.06-0.02-0.1-0.07-0.12-0.13c-0.54-1.56-0.86-3.11-1.11-4.66c-0.26-1.55-0.41-3.1-0.49-4.64c-0.08-1.55-0.04-3.09,0.12-4.63
			c0.17-1.54,0.36-3.08,0.48-4.62c0.23-3.08,0.5-6.16,0.8-9.25c0.34-3.08,0.61-6.16,1-9.24c0.01-0.11,0.11-0.19,0.22-0.17
			C400.32,637.13,400.4,637.21,400.4,637.3z"/>
	</g>
	<g class="st2">
		<path class="st1" d="M106.01,724.12c0.25,3.09,0.4,6.18,0.6,9.28c0.17,3.09,0.3,6.18,0.4,9.27c0.05,1.54,0.18,3.09,0.28,4.64
			c0.09,1.55,0.07,3.09-0.08,4.63c-0.15,1.54-0.37,3.08-0.69,4.62c-0.31,1.54-0.7,3.07-1.31,4.6c-0.04,0.11-0.17,0.16-0.28,0.12
			c-0.06-0.02-0.1-0.07-0.12-0.13c-0.54-1.56-0.86-3.11-1.11-4.66c-0.26-1.55-0.41-3.1-0.49-4.64c-0.08-1.55-0.04-3.09,0.12-4.63
			c0.17-1.54,0.36-3.08,0.48-4.62c0.23-3.08,0.5-6.16,0.8-9.25c0.34-3.08,0.61-6.16,1-9.24c0.01-0.11,0.11-0.19,0.22-0.17
			C105.94,723.95,106.01,724.03,106.01,724.12z"/>
	</g>
	<g class="st4">
		<path class="st1" d="M550.12,1072.86c0.27,2.68,0.43,5.36,0.64,8.03c0.18,2.68,0.33,5.35,0.44,8.03c0.06,1.34,0.19,2.68,0.3,4.02
			c0.1,1.34,0.08,2.68-0.06,4.01c-0.15,1.33-0.35,2.67-0.67,4c-0.3,1.33-0.69,2.66-1.28,3.99c-0.05,0.11-0.18,0.16-0.29,0.11
			c-0.05-0.02-0.09-0.07-0.11-0.12c-0.55-1.35-0.88-2.69-1.13-4.03c-0.27-1.34-0.42-2.68-0.51-4.02c-0.09-1.34-0.06-2.68,0.1-4.01
			c0.16-1.33,0.35-2.67,0.46-4c0.22-2.67,0.47-5.34,0.76-8.01c0.32-2.67,0.58-5.34,0.96-8c0.02-0.11,0.12-0.19,0.23-0.17
			C550.04,1072.7,550.11,1072.77,550.12,1072.86z"/>
	</g>
	<g class="st4">
		<path class="st1" d="M647.66,980.32c0.27,2.68,0.43,5.36,0.64,8.03c0.18,2.68,0.33,5.35,0.44,8.03c0.06,1.34,0.19,2.68,0.3,4.02
			c0.1,1.34,0.08,2.68-0.06,4.01c-0.15,1.33-0.35,2.67-0.67,4c-0.3,1.33-0.69,2.66-1.28,3.99c-0.05,0.11-0.18,0.16-0.29,0.11
			c-0.05-0.02-0.09-0.07-0.11-0.12c-0.55-1.35-0.88-2.69-1.13-4.03c-0.27-1.34-0.42-2.68-0.51-4.02c-0.09-1.34-0.06-2.67,0.1-4.01
			c0.16-1.33,0.35-2.67,0.46-4c0.22-2.67,0.47-5.34,0.76-8.01c0.32-2.67,0.58-5.34,0.96-8c0.02-0.11,0.12-0.19,0.23-0.17
			C647.58,980.15,647.65,980.23,647.66,980.32z"/>
	</g>
	<g class="st4">
		<path class="st1" d="M309.32,772.1c0.27,2.68,0.43,5.36,0.64,8.03c0.18,2.68,0.33,5.35,0.44,8.03c0.06,1.34,0.19,2.68,0.3,4.02
			c0.1,1.34,0.08,2.68-0.06,4.01c-0.15,1.33-0.35,2.67-0.67,4c-0.3,1.33-0.69,2.66-1.28,3.99c-0.05,0.11-0.18,0.16-0.29,0.11
			c-0.05-0.02-0.09-0.07-0.11-0.12c-0.55-1.35-0.88-2.69-1.13-4.03c-0.27-1.34-0.42-2.68-0.51-4.02c-0.09-1.34-0.06-2.67,0.1-4.01
			c0.16-1.33,0.35-2.67,0.46-4c0.22-2.67,0.47-5.34,0.76-8.01c0.32-2.67,0.58-5.34,0.96-8c0.02-0.11,0.12-0.19,0.23-0.17
			C309.25,771.93,309.32,772.01,309.32,772.1z"/>
	</g>
	<g>
		<path class="st1" d="M895.58,585.3c0.22,4.44,0.33,8.88,0.5,13.33c0.13,4.44,0.23,8.88,0.3,13.32c0.07,4.44,0.49,8.89,0.1,13.32
			c-0.16,2.22-0.42,4.43-0.74,6.64c-0.33,2.21-0.73,4.42-1.36,6.63c-0.03,0.11-0.15,0.17-0.25,0.14c-0.07-0.02-0.13-0.08-0.14-0.15
			c-0.52-2.23-0.83-4.46-1.06-6.68c-0.23-2.22-0.38-4.45-0.44-6.67c-0.19-4.44,0.43-8.87,0.7-13.3c0.27-4.43,0.57-8.86,0.9-13.29
			c0.37-4.43,0.68-8.86,1.1-13.29c0.01-0.11,0.11-0.19,0.22-0.18C895.5,585.12,895.58,585.2,895.58,585.3z"/>
	</g>
	<g>
		<path class="st1" d="M705.6,965.14c0.22,4.44,0.33,8.88,0.5,13.33c0.13,4.44,0.23,8.88,0.3,13.32c0.07,4.44,0.49,8.89,0.1,13.32
			c-0.16,2.22-0.42,4.43-0.74,6.64c-0.33,2.21-0.73,4.42-1.36,6.63c-0.03,0.11-0.15,0.17-0.25,0.14c-0.07-0.02-0.13-0.08-0.14-0.15
			c-0.52-2.23-0.83-4.46-1.06-6.68c-0.23-2.22-0.38-4.45-0.44-6.67c-0.19-4.44,0.43-8.87,0.7-13.3c0.27-4.43,0.57-8.86,0.9-13.29
			c0.37-4.43,0.68-8.86,1.1-13.29c0.01-0.11,0.11-0.19,0.22-0.18C705.52,964.96,705.59,965.04,705.6,965.14z"/>
	</g>
	<g>
		<path class="st1" d="M639.7,626.15c0.24,3.37,0.38,6.73,0.57,10.1c0.16,3.37,0.28,6.73,0.37,10.1c0.05,1.68,0.17,3.37,0.27,5.05
			c0.09,1.68,0.06,3.36-0.09,5.04c-0.16,1.68-0.38,3.35-0.71,5.03c-0.32,1.67-0.71,3.35-1.32,5.01c-0.04,0.11-0.16,0.17-0.27,0.13
			c-0.06-0.02-0.11-0.07-0.13-0.13c-0.53-1.69-0.85-3.38-1.09-5.07c-0.25-1.69-0.4-3.37-0.48-5.06c-0.08-1.68-0.03-3.36,0.13-5.04
			c0.17-1.68,0.37-3.35,0.49-5.03c0.24-3.36,0.52-6.71,0.83-10.07c0.35-3.36,0.63-6.71,1.03-10.07c0.01-0.11,0.11-0.19,0.22-0.18
			C639.62,625.98,639.69,626.06,639.7,626.15z"/>
	</g>
	<g>
		<path class="st1" d="M936.62,859.39c0.11,9.68,0.1,19.35,0.16,29.03l-0.04,29.03c-0.04,9.67,0.26,19.36-0.24,29.02
			c-0.25,4.83-0.52,9.66-0.91,14.49c-0.39,4.83-0.85,9.66-1.53,14.48c-0.02,0.11-0.12,0.19-0.23,0.17
			c-0.09-0.01-0.16-0.09-0.17-0.18c-0.47-4.85-0.71-9.69-0.89-14.53c-0.18-4.84-0.24-9.68-0.27-14.52c-0.08-9.68,0.65-19.34,1.04-29
			l1.24-29c0.48-9.67,0.91-19.33,1.44-29c0.01-0.11,0.1-0.19,0.21-0.19C936.54,859.2,936.62,859.29,936.62,859.39z"/>
	</g>
	<g class="st2">
		<path class="st1" d="M772.48,826.85c0.25,3.09,0.4,6.18,0.6,9.28c0.17,3.09,0.3,6.18,0.4,9.27c0.05,1.54,0.18,3.09,0.28,4.64
			c0.09,1.55,0.07,3.09-0.08,4.63c-0.15,1.54-0.37,3.08-0.69,4.62c-0.31,1.54-0.7,3.07-1.31,4.6c-0.04,0.11-0.17,0.16-0.28,0.12
			c-0.06-0.02-0.1-0.07-0.12-0.13c-0.54-1.56-0.86-3.11-1.11-4.66c-0.26-1.55-0.41-3.1-0.49-4.64c-0.08-1.55-0.04-3.09,0.12-4.63
			c0.17-1.54,0.36-3.08,0.48-4.62c0.23-3.08,0.5-6.16,0.8-9.25c0.34-3.08,0.61-6.16,1-9.24c0.01-0.11,0.11-0.19,0.22-0.17
			C772.4,826.68,772.47,826.76,772.48,826.85z"/>
	</g>
	<g class="st2">
		<path class="st1" d="M913.27,803.32c0.22,4.69,0.34,9.38,0.51,14.07c0.14,4.69,0.24,9.38,0.32,14.07
			c0.08,4.69,0.5,9.38,0.12,14.06c-0.19,2.34-0.4,4.68-0.74,7.01c-0.33,2.34-0.73,4.67-1.35,7c-0.03,0.11-0.14,0.18-0.25,0.15
			c-0.08-0.02-0.13-0.08-0.15-0.15c-0.53-2.35-0.83-4.7-1.06-7.05c-0.24-2.35-0.36-4.69-0.45-7.04c-0.2-4.69,0.42-9.36,0.68-14.04
			c0.26-4.68,0.56-9.36,0.88-14.04c0.36-4.68,0.67-9.36,1.08-14.04c0.01-0.11,0.11-0.19,0.22-0.18
			C913.19,803.14,913.27,803.22,913.27,803.32z"/>
	</g>
	<g class="st2">
		<path class="st1" d="M1027.64,679.1c0.25,3.09,0.4,6.18,0.6,9.28c0.17,3.09,0.3,6.18,0.4,9.27c0.05,1.54,0.18,3.09,0.28,4.64
			c0.09,1.55,0.07,3.09-0.08,4.63c-0.15,1.54-0.37,3.08-0.69,4.62c-0.31,1.54-0.7,3.07-1.31,4.6c-0.04,0.11-0.17,0.16-0.28,0.12
			c-0.06-0.02-0.1-0.07-0.12-0.13c-0.54-1.56-0.86-3.11-1.11-4.66c-0.26-1.55-0.41-3.1-0.49-4.64c-0.08-1.55-0.04-3.09,0.12-4.63
			c0.17-1.54,0.36-3.08,0.48-4.62c0.23-3.08,0.5-6.16,0.8-9.25c0.34-3.08,0.61-6.16,1-9.24c0.01-0.11,0.11-0.19,0.22-0.17
			C1027.56,678.93,1027.63,679.01,1027.64,679.1z"/>
	</g>
	<g class="st3">
		<path class="st1" d="M867.81,499.46c0.25,3.09,0.4,6.18,0.6,9.28c0.17,3.09,0.3,6.18,0.4,9.27c0.05,1.54,0.18,3.09,0.28,4.64
			c0.09,1.55,0.07,3.09-0.08,4.63c-0.15,1.54-0.37,3.08-0.69,4.62c-0.31,1.54-0.7,3.07-1.31,4.6c-0.04,0.11-0.17,0.16-0.28,0.12
			c-0.06-0.02-0.1-0.07-0.12-0.13c-0.54-1.56-0.86-3.11-1.11-4.66c-0.26-1.55-0.41-3.1-0.49-4.64c-0.08-1.55-0.04-3.09,0.12-4.63
			c0.17-1.54,0.36-3.08,0.48-4.62c0.23-3.08,0.5-6.16,0.8-9.25c0.34-3.08,0.61-6.16,1-9.24c0.01-0.11,0.11-0.19,0.22-0.17
			C867.74,499.29,867.81,499.36,867.81,499.46z"/>
	</g>
	<g class="st2">
		<path class="st1" d="M573.43,586.27c0.25,3.09,0.4,6.18,0.6,9.28c0.17,3.09,0.3,6.18,0.4,9.27c0.05,1.54,0.18,3.09,0.28,4.64
			c0.09,1.55,0.07,3.09-0.08,4.63c-0.15,1.54-0.37,3.08-0.69,4.62c-0.31,1.54-0.7,3.07-1.31,4.6c-0.04,0.11-0.17,0.16-0.28,0.12
			c-0.06-0.02-0.1-0.07-0.12-0.13c-0.54-1.56-0.86-3.11-1.11-4.66c-0.26-1.55-0.41-3.1-0.49-4.64c-0.08-1.55-0.04-3.09,0.12-4.63
			c0.17-1.54,0.36-3.08,0.48-4.62c0.23-3.08,0.5-6.16,0.8-9.25c0.34-3.08,0.61-6.16,1-9.24c0.01-0.11,0.11-0.19,0.22-0.17
			C573.35,586.1,573.42,586.18,573.43,586.27z"/>
	</g>
	<g class="st4">
		<path class="st1" d="M1017.53,935.02c0.27,2.68,0.43,5.36,0.64,8.03c0.18,2.68,0.33,5.35,0.44,8.03c0.06,1.34,0.19,2.68,0.3,4.02
			c0.1,1.34,0.08,2.68-0.06,4.01c-0.15,1.33-0.35,2.67-0.67,4c-0.3,1.33-0.69,2.66-1.28,3.99c-0.05,0.11-0.18,0.16-0.29,0.11
			c-0.05-0.02-0.09-0.07-0.11-0.12c-0.55-1.35-0.88-2.69-1.13-4.03c-0.27-1.34-0.42-2.68-0.51-4.02c-0.09-1.34-0.06-2.67,0.1-4.01
			c0.16-1.33,0.35-2.67,0.46-4c0.22-2.67,0.47-5.34,0.76-8.01c0.32-2.67,0.58-5.34,0.96-8c0.02-0.11,0.12-0.19,0.23-0.17
			C1017.45,934.85,1017.52,934.93,1017.53,935.02z"/>
	</g>
	<g class="st4">
		<path class="st1" d="M1115.07,842.47c0.27,2.68,0.43,5.36,0.64,8.03c0.18,2.68,0.33,5.35,0.44,8.03c0.06,1.34,0.19,2.68,0.3,4.02
			c0.1,1.34,0.08,2.68-0.06,4.01c-0.15,1.33-0.35,2.67-0.67,4c-0.3,1.33-0.69,2.66-1.28,3.99c-0.05,0.11-0.18,0.16-0.29,0.11
			c-0.05-0.02-0.09-0.07-0.11-0.12c-0.55-1.35-0.88-2.69-1.13-4.03c-0.27-1.34-0.42-2.68-0.51-4.02c-0.09-1.34-0.06-2.67,0.1-4.01
			c0.16-1.33,0.35-2.67,0.46-4c0.22-2.67,0.47-5.34,0.76-8.01c0.32-2.67,0.58-5.34,0.96-8c0.02-0.11,0.12-0.19,0.23-0.17
			C1114.99,842.31,1115.06,842.38,1115.07,842.47z"/>
	</g>
	<g class="st4">
		<path class="st1" d="M776.74,634.25c0.27,2.68,0.43,5.36,0.64,8.03c0.18,2.68,0.33,5.35,0.44,8.03c0.06,1.34,0.19,2.68,0.3,4.02
			c0.1,1.34,0.08,2.68-0.06,4.01c-0.15,1.33-0.35,2.67-0.67,4c-0.3,1.33-0.69,2.66-1.28,3.99c-0.05,0.11-0.18,0.16-0.29,0.11
			c-0.05-0.02-0.09-0.07-0.11-0.12c-0.55-1.35-0.88-2.69-1.13-4.03c-0.27-1.34-0.42-2.68-0.51-4.02c-0.09-1.34-0.06-2.67,0.1-4.01
			c0.16-1.33,0.35-2.67,0.46-4c0.22-2.67,0.47-5.34,0.76-8.01c0.32-2.67,0.58-5.34,0.96-8c0.02-0.11,0.12-0.19,0.23-0.17
			C776.66,634.09,776.73,634.16,776.74,634.25z"/>
	</g>
	<g>
		<path class="st1" d="M1289.79,487.81c0.22,4.44,0.33,8.88,0.5,13.33c0.13,4.44,0.23,8.88,0.3,13.32c0.07,4.44,0.49,8.89,0.1,13.32
			c-0.16,2.22-0.42,4.43-0.74,6.64c-0.33,2.21-0.73,4.42-1.36,6.63c-0.03,0.11-0.15,0.17-0.25,0.14c-0.07-0.02-0.13-0.08-0.15-0.15
			c-0.52-2.23-0.83-4.46-1.06-6.68c-0.23-2.22-0.38-4.45-0.44-6.67c-0.19-4.44,0.43-8.87,0.7-13.3c0.27-4.43,0.57-8.86,0.9-13.29
			c0.37-4.43,0.68-8.86,1.1-13.29c0.01-0.11,0.11-0.19,0.22-0.18C1289.71,487.63,1289.79,487.72,1289.79,487.81z"/>
	</g>
	<g>
		<path class="st1" d="M1099.81,867.65c0.22,4.44,0.33,8.88,0.5,13.33c0.13,4.44,0.23,8.88,0.3,13.32c0.07,4.44,0.49,8.89,0.1,13.32
			c-0.16,2.22-0.42,4.43-0.74,6.64c-0.33,2.21-0.73,4.42-1.36,6.63c-0.03,0.11-0.15,0.17-0.26,0.14c-0.07-0.02-0.13-0.08-0.14-0.15
			c-0.52-2.23-0.83-4.46-1.06-6.68c-0.23-2.22-0.38-4.45-0.44-6.67c-0.19-4.44,0.43-8.87,0.7-13.3c0.27-4.43,0.57-8.86,0.9-13.29
			c0.37-4.43,0.68-8.86,1.1-13.29c0.01-0.11,0.11-0.19,0.22-0.18C1099.73,867.47,1099.8,867.55,1099.81,867.65z"/>
	</g>
	<g>
		<path class="st1" d="M1033.91,528.66c0.24,3.37,0.38,6.73,0.57,10.1c0.16,3.37,0.28,6.73,0.37,10.1c0.05,1.68,0.17,3.37,0.27,5.05
			c0.09,1.68,0.06,3.36-0.09,5.04c-0.16,1.68-0.38,3.35-0.71,5.03c-0.32,1.67-0.71,3.35-1.32,5.01c-0.04,0.11-0.16,0.17-0.27,0.13
			c-0.06-0.02-0.11-0.08-0.13-0.13c-0.53-1.69-0.85-3.38-1.09-5.07c-0.25-1.69-0.4-3.37-0.48-5.06c-0.08-1.68-0.03-3.36,0.13-5.04
			c0.17-1.68,0.37-3.35,0.49-5.03c0.24-3.36,0.52-6.71,0.83-10.07c0.35-3.36,0.63-6.71,1.03-10.07c0.01-0.11,0.11-0.19,0.22-0.18
			C1033.83,528.49,1033.9,528.57,1033.91,528.66z"/>
	</g>
	<g>
		<path class="st1" d="M1330.83,761.91c0.11,9.68,0.1,19.35,0.16,29.03l-0.04,29.03c-0.04,9.67,0.26,19.36-0.24,29.02
			c-0.25,4.83-0.52,9.66-0.91,14.49c-0.39,4.83-0.85,9.66-1.53,14.48c-0.02,0.11-0.12,0.19-0.23,0.17
			c-0.09-0.01-0.16-0.09-0.17-0.18c-0.47-4.85-0.71-9.69-0.89-14.53c-0.18-4.84-0.24-9.68-0.27-14.52c-0.08-9.68,0.65-19.34,1.04-29
			l1.24-29c0.48-9.67,0.91-19.33,1.44-29c0.01-0.11,0.1-0.19,0.21-0.19C1330.75,761.71,1330.83,761.8,1330.83,761.91z"/>
	</g>
	<g class="st2">
		<path class="st1" d="M1166.69,729.36c0.25,3.09,0.4,6.18,0.6,9.28c0.17,3.09,0.3,6.18,0.4,9.27c0.05,1.54,0.18,3.09,0.28,4.64
			c0.09,1.55,0.07,3.09-0.08,4.63c-0.15,1.54-0.37,3.08-0.69,4.62c-0.31,1.54-0.7,3.07-1.31,4.6c-0.04,0.11-0.17,0.16-0.28,0.12
			c-0.06-0.02-0.1-0.07-0.12-0.13c-0.54-1.56-0.86-3.11-1.11-4.66c-0.26-1.55-0.41-3.1-0.49-4.64c-0.08-1.55-0.04-3.09,0.12-4.63
			c0.17-1.54,0.36-3.08,0.48-4.62c0.23-3.08,0.5-6.16,0.8-9.25c0.34-3.08,0.61-6.16,1-9.24c0.01-0.11,0.11-0.19,0.22-0.17
			C1166.61,729.19,1166.68,729.27,1166.69,729.36z"/>
	</g>
	<g class="st2">
		<path class="st1" d="M1307.48,705.83c0.22,4.69,0.34,9.38,0.52,14.07c0.14,4.69,0.24,9.38,0.32,14.07
			c0.08,4.69,0.5,9.38,0.12,14.06c-0.19,2.34-0.4,4.68-0.74,7.01c-0.33,2.34-0.73,4.67-1.35,7c-0.03,0.11-0.14,0.18-0.25,0.15
			c-0.08-0.02-0.13-0.08-0.15-0.15c-0.53-2.35-0.83-4.7-1.06-7.05c-0.24-2.35-0.36-4.69-0.45-7.04c-0.2-4.69,0.42-9.36,0.68-14.04
			c0.26-4.68,0.56-9.36,0.88-14.04c0.36-4.68,0.67-9.36,1.08-14.04c0.01-0.11,0.11-0.19,0.22-0.18
			C1307.4,705.65,1307.48,705.73,1307.48,705.83z"/>
	</g>
	<g class="st2">
		<path class="st1" d="M1421.85,581.61c0.25,3.09,0.4,6.18,0.6,9.28c0.17,3.09,0.3,6.18,0.4,9.27c0.05,1.54,0.18,3.09,0.28,4.64
			c0.09,1.55,0.07,3.09-0.08,4.63c-0.15,1.54-0.37,3.08-0.69,4.62c-0.31,1.54-0.7,3.07-1.31,4.6c-0.04,0.11-0.17,0.16-0.28,0.12
			c-0.06-0.02-0.1-0.07-0.12-0.13c-0.54-1.56-0.86-3.11-1.11-4.66c-0.26-1.55-0.41-3.1-0.49-4.64c-0.08-1.55-0.04-3.09,0.12-4.63
			c0.17-1.54,0.36-3.08,0.48-4.62c0.23-3.08,0.5-6.16,0.8-9.25c0.34-3.08,0.61-6.16,1-9.24c0.01-0.11,0.11-0.19,0.22-0.17
			C1421.77,581.44,1421.84,581.52,1421.85,581.61z"/>
	</g>
	<g class="st3">
		<path class="st1" d="M1262.02,401.97c0.25,3.09,0.4,6.18,0.6,9.28c0.17,3.09,0.3,6.18,0.4,9.27c0.05,1.54,0.18,3.09,0.28,4.64
			c0.09,1.55,0.07,3.09-0.08,4.63c-0.15,1.54-0.37,3.08-0.69,4.62c-0.31,1.54-0.7,3.07-1.31,4.6c-0.04,0.11-0.17,0.16-0.28,0.12
			c-0.06-0.02-0.1-0.07-0.12-0.13c-0.54-1.56-0.86-3.11-1.11-4.66c-0.26-1.55-0.41-3.1-0.49-4.64c-0.08-1.55-0.04-3.09,0.12-4.63
			c0.17-1.54,0.36-3.08,0.48-4.62c0.23-3.08,0.5-6.16,0.8-9.25c0.34-3.08,0.61-6.16,1-9.24c0.01-0.11,0.11-0.19,0.22-0.17
			C1261.95,401.8,1262.02,401.87,1262.02,401.97z"/>
	</g>
	<g class="st2">
		<path class="st1" d="M967.64,488.79c0.25,3.09,0.4,6.18,0.6,9.28c0.17,3.09,0.3,6.18,0.4,9.27c0.05,1.54,0.18,3.09,0.28,4.64
			c0.09,1.55,0.07,3.09-0.08,4.63c-0.15,1.54-0.37,3.08-0.69,4.62c-0.31,1.54-0.7,3.07-1.31,4.6c-0.04,0.11-0.17,0.16-0.28,0.12
			c-0.06-0.02-0.1-0.07-0.12-0.13c-0.54-1.56-0.86-3.11-1.11-4.66c-0.26-1.55-0.41-3.1-0.49-4.64c-0.08-1.55-0.04-3.09,0.12-4.63
			c0.17-1.54,0.36-3.08,0.48-4.62c0.23-3.08,0.5-6.16,0.8-9.25c0.34-3.08,0.61-6.16,1-9.24c0.01-0.11,0.11-0.19,0.22-0.17
			C967.56,488.61,967.63,488.69,967.64,488.79z"/>
	</g>
	<g class="st4">
		<path class="st1" d="M1411.74,837.53c0.27,2.68,0.43,5.36,0.64,8.03c0.18,2.68,0.33,5.35,0.44,8.03c0.06,1.34,0.19,2.68,0.3,4.02
			c0.1,1.34,0.08,2.68-0.06,4.01c-0.15,1.33-0.35,2.67-0.67,4c-0.3,1.33-0.69,2.66-1.28,3.99c-0.05,0.11-0.18,0.16-0.29,0.11
			c-0.05-0.02-0.09-0.07-0.11-0.12c-0.55-1.35-0.88-2.69-1.13-4.03c-0.27-1.34-0.42-2.68-0.51-4.02c-0.09-1.34-0.06-2.67,0.1-4.01
			c0.16-1.33,0.35-2.67,0.46-4c0.22-2.67,0.47-5.34,0.76-8.01c0.32-2.67,0.58-5.34,0.96-8c0.02-0.11,0.12-0.19,0.23-0.17
			C1411.66,837.37,1411.73,837.44,1411.74,837.53z"/>
	</g>
	<g class="st4">
		<path class="st1" d="M1509.28,744.99c0.27,2.68,0.43,5.36,0.64,8.03c0.18,2.68,0.33,5.35,0.44,8.03c0.06,1.34,0.19,2.68,0.3,4.02
			c0.1,1.34,0.08,2.68-0.06,4.01c-0.15,1.33-0.35,2.67-0.67,4c-0.3,1.33-0.69,2.66-1.28,3.99c-0.05,0.11-0.18,0.16-0.29,0.11
			c-0.05-0.02-0.09-0.07-0.11-0.12c-0.55-1.35-0.88-2.69-1.13-4.03c-0.27-1.34-0.42-2.68-0.51-4.02c-0.09-1.34-0.06-2.67,0.1-4.01
			c0.16-1.33,0.35-2.67,0.46-4c0.22-2.67,0.47-5.34,0.76-8.01c0.32-2.67,0.58-5.34,0.96-8c0.02-0.11,0.12-0.19,0.23-0.17
			C1509.2,744.82,1509.27,744.89,1509.28,744.99z"/>
	</g>
	<g class="st4">
		<path class="st1" d="M1170.95,536.76c0.27,2.68,0.43,5.36,0.64,8.03c0.18,2.68,0.33,5.35,0.44,8.03c0.06,1.34,0.19,2.68,0.3,4.02
			c0.1,1.34,0.08,2.68-0.06,4.01c-0.15,1.33-0.35,2.67-0.67,4c-0.3,1.33-0.69,2.66-1.28,3.99c-0.05,0.11-0.18,0.16-0.29,0.11
			c-0.05-0.02-0.09-0.07-0.11-0.12c-0.55-1.35-0.88-2.69-1.13-4.03c-0.27-1.34-0.42-2.68-0.51-4.02c-0.09-1.34-0.06-2.67,0.1-4.01
			c0.16-1.33,0.35-2.67,0.46-4c0.22-2.67,0.47-5.34,0.76-8.01c0.32-2.67,0.58-5.34,0.96-8c0.02-0.11,0.12-0.19,0.23-0.17
			C1170.87,536.6,1170.94,536.67,1170.95,536.76z"/>
	</g>
	<g>
		<path class="st1" d="M1757.21,349.97c0.22,4.44,0.33,8.88,0.5,13.33c0.13,4.44,0.23,8.88,0.3,13.32c0.07,4.44,0.49,8.89,0.1,13.32
			c-0.16,2.22-0.42,4.43-0.74,6.64c-0.33,2.21-0.73,4.42-1.36,6.63c-0.03,0.11-0.15,0.17-0.25,0.14c-0.07-0.02-0.13-0.08-0.15-0.15
			c-0.52-2.23-0.83-4.46-1.06-6.68c-0.23-2.22-0.38-4.45-0.44-6.67c-0.19-4.44,0.43-8.87,0.7-13.3c0.27-4.43,0.57-8.86,0.9-13.29
			c0.37-4.43,0.68-8.86,1.1-13.29c0.01-0.11,0.11-0.19,0.22-0.18C1757.13,349.79,1757.2,349.87,1757.21,349.97z"/>
	</g>
	<g>
		<path class="st1" d="M1567.22,729.81c0.22,4.44,0.33,8.88,0.5,13.33c0.13,4.44,0.23,8.88,0.3,13.32c0.07,4.44,0.49,8.89,0.1,13.32
			c-0.16,2.22-0.42,4.43-0.74,6.64c-0.33,2.21-0.73,4.42-1.36,6.63c-0.03,0.11-0.15,0.17-0.26,0.14c-0.07-0.02-0.13-0.08-0.14-0.15
			c-0.52-2.23-0.83-4.46-1.06-6.68c-0.23-2.22-0.38-4.45-0.44-6.67c-0.19-4.44,0.43-8.87,0.7-13.3c0.27-4.43,0.57-8.86,0.9-13.29
			c0.37-4.43,0.68-8.86,1.1-13.29c0.01-0.11,0.11-0.19,0.22-0.18C1567.14,729.63,1567.22,729.71,1567.22,729.81z"/>
	</g>
	<g>
		<path class="st1" d="M1501.32,390.82c0.24,3.37,0.38,6.73,0.57,10.1c0.16,3.37,0.28,6.73,0.37,10.1c0.05,1.68,0.17,3.37,0.27,5.05
			c0.09,1.68,0.06,3.36-0.09,5.04c-0.16,1.68-0.38,3.35-0.71,5.03c-0.32,1.67-0.71,3.35-1.32,5.01c-0.04,0.11-0.16,0.17-0.27,0.13
			c-0.06-0.02-0.11-0.07-0.13-0.13c-0.53-1.69-0.85-3.38-1.09-5.07c-0.25-1.69-0.4-3.37-0.48-5.06c-0.08-1.68-0.03-3.36,0.13-5.04
			c0.17-1.68,0.37-3.35,0.49-5.03c0.24-3.36,0.52-6.71,0.83-10.07c0.35-3.36,0.63-6.71,1.03-10.07c0.01-0.11,0.11-0.19,0.22-0.18
			C1501.24,390.64,1501.31,390.72,1501.32,390.82z"/>
	</g>
	<g>
		<path class="st1" d="M1798.24,624.06c0.11,9.68,0.1,19.35,0.16,29.03l-0.04,29.03c-0.04,9.67,0.26,19.36-0.24,29.02
			c-0.25,4.83-0.52,9.66-0.91,14.49c-0.39,4.83-0.85,9.66-1.53,14.48c-0.02,0.11-0.12,0.19-0.23,0.17
			c-0.09-0.01-0.16-0.09-0.17-0.18c-0.47-4.85-0.71-9.69-0.89-14.53c-0.18-4.84-0.24-9.68-0.27-14.52c-0.08-9.68,0.65-19.34,1.04-29
			l1.24-29c0.48-9.67,0.91-19.33,1.44-29c0.01-0.11,0.1-0.19,0.21-0.19C1798.16,623.87,1798.24,623.96,1798.24,624.06z"/>
	</g>
	<g class="st2">
		<path class="st1" d="M1634.1,591.52c0.25,3.09,0.4,6.18,0.6,9.28c0.17,3.09,0.3,6.18,0.4,9.27c0.05,1.54,0.18,3.09,0.28,4.64
			c0.09,1.55,0.07,3.09-0.08,4.63c-0.15,1.54-0.37,3.08-0.69,4.62c-0.31,1.54-0.7,3.07-1.31,4.6c-0.04,0.11-0.17,0.16-0.28,0.12
			c-0.06-0.02-0.1-0.07-0.12-0.13c-0.54-1.56-0.86-3.11-1.11-4.66c-0.26-1.55-0.41-3.1-0.49-4.64c-0.08-1.55-0.04-3.09,0.12-4.63
			c0.17-1.54,0.36-3.08,0.48-4.62c0.23-3.08,0.5-6.16,0.8-9.25c0.34-3.08,0.61-6.16,1-9.24c0.01-0.11,0.11-0.19,0.22-0.17
			C1634.02,591.35,1634.09,591.42,1634.1,591.52z"/>
	</g>
	<g class="st2">
		<path class="st1" d="M1774.89,567.98c0.22,4.69,0.34,9.38,0.52,14.07c0.14,4.69,0.24,9.38,0.32,14.07
			c0.08,4.69,0.5,9.38,0.12,14.06c-0.19,2.34-0.4,4.68-0.74,7.01c-0.33,2.34-0.73,4.67-1.35,7c-0.03,0.11-0.14,0.18-0.25,0.15
			c-0.08-0.02-0.13-0.08-0.15-0.15c-0.53-2.35-0.83-4.7-1.06-7.05c-0.24-2.35-0.36-4.69-0.45-7.04c-0.2-4.69,0.42-9.36,0.68-14.04
			c0.26-4.68,0.56-9.36,0.88-14.04c0.36-4.68,0.67-9.36,1.08-14.04c0.01-0.11,0.11-0.19,0.22-0.18
			C1774.81,567.8,1774.89,567.89,1774.89,567.98z"/>
	</g>
	<g class="st2">
		<path class="st1" d="M1889.26,443.77c0.25,3.09,0.4,6.18,0.6,9.28c0.17,3.09,0.3,6.18,0.4,9.27c0.05,1.54,0.18,3.09,0.28,4.64
			c0.09,1.55,0.07,3.09-0.08,4.63c-0.15,1.54-0.37,3.08-0.69,4.62c-0.31,1.54-0.7,3.07-1.31,4.6c-0.04,0.11-0.17,0.16-0.28,0.12
			c-0.06-0.02-0.1-0.07-0.12-0.13c-0.54-1.56-0.86-3.11-1.11-4.66c-0.26-1.55-0.41-3.1-0.49-4.64c-0.08-1.55-0.04-3.09,0.12-4.63
			c0.17-1.54,0.36-3.08,0.48-4.62c0.23-3.08,0.5-6.16,0.8-9.25c0.34-3.08,0.61-6.16,1-9.24c0.01-0.11,0.11-0.19,0.22-0.17
			C1889.18,443.59,1889.25,443.67,1889.26,443.77z"/>
	</g>
	<g class="st3">
		<path class="st1" d="M1729.44,264.12c0.25,3.09,0.4,6.18,0.6,9.28c0.17,3.09,0.3,6.18,0.4,9.27c0.05,1.54,0.18,3.09,0.28,4.64
			c0.09,1.55,0.07,3.09-0.08,4.63c-0.15,1.54-0.37,3.08-0.69,4.62c-0.31,1.54-0.7,3.07-1.31,4.6c-0.04,0.11-0.17,0.16-0.28,0.12
			c-0.06-0.02-0.1-0.07-0.12-0.13c-0.54-1.56-0.86-3.11-1.11-4.66c-0.26-1.55-0.41-3.1-0.49-4.64c-0.08-1.55-0.04-3.09,0.12-4.63
			c0.17-1.54,0.36-3.08,0.48-4.62c0.23-3.08,0.5-6.16,0.8-9.25c0.34-3.08,0.61-6.16,1-9.24c0.01-0.11,0.11-0.19,0.22-0.17
			C1729.36,263.95,1729.43,264.03,1729.44,264.12z"/>
	</g>
	<g class="st2">
		<path class="st1" d="M1435.05,350.94c0.25,3.09,0.4,6.18,0.6,9.28c0.17,3.09,0.3,6.18,0.4,9.27c0.05,1.54,0.18,3.09,0.28,4.64
			c0.09,1.55,0.07,3.09-0.08,4.63c-0.15,1.54-0.37,3.08-0.69,4.62c-0.31,1.54-0.7,3.07-1.31,4.6c-0.04,0.11-0.17,0.16-0.28,0.12
			c-0.06-0.02-0.1-0.07-0.12-0.13c-0.54-1.56-0.86-3.11-1.11-4.66c-0.26-1.55-0.41-3.1-0.49-4.64c-0.08-1.55-0.04-3.09,0.12-4.63
			c0.17-1.54,0.36-3.08,0.48-4.62c0.23-3.08,0.5-6.16,0.8-9.25c0.34-3.08,0.61-6.16,1-9.24c0.01-0.11,0.11-0.19,0.22-0.17
			C1434.97,350.77,1435.04,350.85,1435.05,350.94z"/>
	</g>
	<g class="st4">
		<path class="st1" d="M1879.15,699.69c0.27,2.68,0.43,5.36,0.64,8.03c0.18,2.68,0.33,5.35,0.44,8.03c0.06,1.34,0.19,2.68,0.3,4.02
			c0.1,1.34,0.08,2.68-0.06,4.01c-0.15,1.33-0.35,2.67-0.67,4c-0.3,1.33-0.69,2.66-1.28,3.99c-0.05,0.11-0.18,0.16-0.29,0.11
			c-0.05-0.02-0.09-0.07-0.11-0.12c-0.55-1.35-0.88-2.69-1.13-4.03c-0.27-1.34-0.42-2.68-0.52-4.02c-0.09-1.34-0.06-2.67,0.1-4.01
			c0.16-1.33,0.35-2.67,0.46-4c0.22-2.67,0.47-5.34,0.76-8.01c0.32-2.67,0.58-5.34,0.96-8c0.02-0.11,0.12-0.19,0.23-0.17
			C1879.07,699.52,1879.14,699.6,1879.15,699.69z"/>
	</g>
	<g class="st4">
		<path class="st1" d="M1976.69,607.14c0.27,2.68,0.43,5.36,0.64,8.03c0.18,2.68,0.33,5.35,0.44,8.03c0.06,1.34,0.19,2.68,0.3,4.02
			c0.1,1.34,0.08,2.68-0.06,4.01c-0.15,1.33-0.35,2.67-0.67,4c-0.3,1.33-0.69,2.66-1.28,3.99c-0.05,0.11-0.18,0.16-0.29,0.11
			c-0.05-0.02-0.09-0.07-0.11-0.12c-0.55-1.35-0.88-2.69-1.13-4.03c-0.27-1.34-0.42-2.68-0.51-4.02c-0.09-1.34-0.06-2.67,0.1-4.01
			c0.16-1.33,0.35-2.67,0.46-4c0.22-2.67,0.47-5.34,0.76-8.01c0.32-2.67,0.58-5.34,0.96-8c0.02-0.11,0.12-0.19,0.23-0.17
			C1976.61,606.98,1976.68,607.05,1976.69,607.14z"/>
	</g>
	<g class="st4">
		<path class="st1" d="M1638.36,398.92c0.27,2.68,0.43,5.36,0.64,8.03c0.18,2.68,0.33,5.35,0.44,8.03c0.06,1.34,0.19,2.68,0.3,4.02
			c0.1,1.34,0.08,2.68-0.06,4.01c-0.15,1.33-0.35,2.67-0.67,4c-0.3,1.33-0.69,2.66-1.28,3.99c-0.05,0.11-0.18,0.16-0.29,0.11
			c-0.05-0.02-0.09-0.07-0.11-0.12c-0.55-1.35-0.88-2.69-1.13-4.03c-0.27-1.34-0.42-2.68-0.51-4.02c-0.09-1.34-0.06-2.68,0.1-4.01
			c0.16-1.33,0.35-2.67,0.46-4c0.22-2.67,0.47-5.34,0.76-8.01c0.32-2.67,0.58-5.34,0.96-8c0.02-0.11,0.12-0.19,0.23-0.17
			C1638.28,398.75,1638.35,398.83,1638.36,398.92z"/>
	</g>
	<g>
		<path class="st1" d="M330.23,221.36c0.22,4.44,0.33,8.88,0.5,13.33c0.13,4.44,0.23,8.88,0.3,13.32c0.07,4.44,0.49,8.89,0.1,13.32
			c-0.16,2.22-0.42,4.43-0.74,6.64c-0.33,2.21-0.73,4.42-1.36,6.63c-0.03,0.11-0.15,0.17-0.25,0.14c-0.07-0.02-0.13-0.08-0.14-0.15
			c-0.52-2.23-0.83-4.46-1.06-6.68c-0.23-2.22-0.38-4.45-0.44-6.67c-0.19-4.44,0.43-8.87,0.7-13.3c0.27-4.43,0.57-8.86,0.9-13.29
			c0.37-4.43,0.68-8.86,1.1-13.29c0.01-0.11,0.11-0.19,0.22-0.18C330.15,221.18,330.23,221.26,330.23,221.36z"/>
	</g>
	<g>
		<path class="st1" d="M140.25,601.19c0.22,4.44,0.33,8.88,0.5,13.33c0.13,4.44,0.23,8.88,0.3,13.32c0.07,4.44,0.49,8.89,0.1,13.32
			c-0.16,2.22-0.42,4.43-0.74,6.64c-0.33,2.21-0.73,4.42-1.36,6.63c-0.03,0.11-0.15,0.17-0.25,0.14c-0.07-0.02-0.13-0.08-0.14-0.15
			c-0.52-2.23-0.83-4.46-1.06-6.68c-0.23-2.22-0.38-4.45-0.44-6.67c-0.19-4.44,0.43-8.87,0.7-13.3c0.27-4.43,0.57-8.86,0.9-13.29
			c0.37-4.43,0.68-8.86,1.1-13.29c0.01-0.11,0.11-0.19,0.22-0.18C140.17,601.01,140.24,601.1,140.25,601.19z"/>
	</g>
	<g>
		<path class="st1" d="M74.35,262.2c0.24,3.37,0.38,6.73,0.57,10.1c0.16,3.37,0.28,6.73,0.37,10.1c0.05,1.68,0.17,3.37,0.27,5.05
			c0.09,1.68,0.06,3.36-0.09,5.04c-0.16,1.68-0.38,3.35-0.71,5.03c-0.32,1.67-0.71,3.35-1.32,5.01c-0.04,0.11-0.16,0.17-0.27,0.13
			c-0.06-0.02-0.11-0.07-0.13-0.13c-0.53-1.69-0.85-3.38-1.09-5.07c-0.25-1.69-0.4-3.37-0.48-5.06c-0.08-1.68-0.03-3.36,0.13-5.04
			c0.17-1.68,0.37-3.35,0.49-5.03c0.24-3.36,0.52-6.71,0.83-10.07c0.35-3.36,0.63-6.71,1.03-10.07c0.01-0.11,0.11-0.19,0.22-0.18
			C74.27,262.03,74.34,262.11,74.35,262.2z"/>
	</g>
	<g>
		<path class="st1" d="M371.27,495.45c0.11,9.68,0.1,19.35,0.16,29.03l-0.04,29.03c-0.04,9.67,0.26,19.36-0.24,29.02
			c-0.25,4.83-0.52,9.66-0.91,14.49c-0.39,4.83-0.85,9.66-1.53,14.48c-0.02,0.11-0.12,0.19-0.23,0.17
			c-0.09-0.01-0.16-0.09-0.17-0.18c-0.47-4.85-0.71-9.69-0.89-14.53c-0.18-4.84-0.24-9.68-0.27-14.52c-0.08-9.68,0.65-19.34,1.04-29
			l1.24-29c0.48-9.67,0.91-19.33,1.44-29c0.01-0.11,0.1-0.19,0.21-0.19C371.19,495.26,371.27,495.34,371.27,495.45z"/>
	</g>
	<g class="st2">
		<path class="st1" d="M207.13,462.9c0.25,3.09,0.4,6.18,0.6,9.28c0.17,3.09,0.3,6.18,0.4,9.27c0.05,1.54,0.18,3.09,0.28,4.64
			c0.09,1.55,0.07,3.09-0.08,4.63c-0.15,1.54-0.37,3.08-0.69,4.62c-0.31,1.54-0.7,3.07-1.31,4.6c-0.04,0.11-0.17,0.16-0.28,0.12
			c-0.06-0.02-0.1-0.07-0.12-0.13c-0.54-1.56-0.86-3.11-1.11-4.66c-0.26-1.55-0.41-3.1-0.49-4.64c-0.08-1.55-0.04-3.09,0.12-4.63
			c0.17-1.54,0.36-3.08,0.48-4.62c0.23-3.08,0.5-6.16,0.8-9.25c0.34-3.08,0.61-6.16,1-9.24c0.01-0.11,0.11-0.19,0.22-0.17
			C207.05,462.73,207.12,462.81,207.13,462.9z"/>
	</g>
	<g class="st2">
		<path class="st1" d="M347.92,439.37c0.22,4.69,0.34,9.38,0.51,14.07c0.14,4.69,0.24,9.38,0.32,14.07
			c0.08,4.69,0.5,9.38,0.12,14.06c-0.19,2.34-0.4,4.68-0.74,7.01c-0.33,2.34-0.73,4.67-1.35,7c-0.03,0.11-0.14,0.18-0.25,0.15
			c-0.08-0.02-0.13-0.08-0.15-0.15c-0.53-2.35-0.83-4.7-1.06-7.05c-0.24-2.35-0.36-4.69-0.45-7.04c-0.2-4.69,0.42-9.36,0.68-14.04
			c0.26-4.68,0.56-9.36,0.88-14.04c0.36-4.68,0.67-9.36,1.08-14.04c0.01-0.11,0.11-0.19,0.22-0.18
			C347.84,439.19,347.92,439.27,347.92,439.37z"/>
	</g>
	<g class="st2">
		<path class="st1" d="M462.29,315.15c0.25,3.09,0.4,6.18,0.6,9.28c0.17,3.09,0.3,6.18,0.4,9.27c0.05,1.54,0.18,3.09,0.28,4.64
			c0.09,1.55,0.07,3.09-0.08,4.63c-0.15,1.54-0.37,3.08-0.69,4.62c-0.31,1.54-0.7,3.07-1.31,4.6c-0.04,0.11-0.17,0.16-0.28,0.12
			c-0.06-0.02-0.1-0.07-0.12-0.13c-0.54-1.56-0.86-3.11-1.11-4.66c-0.26-1.55-0.41-3.1-0.49-4.64c-0.08-1.55-0.04-3.09,0.12-4.63
			c0.17-1.54,0.36-3.08,0.48-4.62c0.23-3.08,0.5-6.16,0.8-9.25c0.34-3.08,0.61-6.16,1-9.24c0.01-0.11,0.11-0.19,0.22-0.17
			C462.21,314.98,462.28,315.06,462.29,315.15z"/>
	</g>
	<g class="st3">
		<path class="st1" d="M302.46,135.51c0.25,3.09,0.4,6.18,0.6,9.28c0.17,3.09,0.3,6.18,0.4,9.27c0.05,1.54,0.18,3.09,0.28,4.64
			c0.09,1.55,0.07,3.09-0.08,4.63c-0.15,1.54-0.37,3.08-0.69,4.62c-0.31,1.54-0.7,3.07-1.31,4.6c-0.04,0.11-0.17,0.16-0.28,0.12
			c-0.06-0.02-0.1-0.07-0.12-0.13c-0.54-1.56-0.86-3.11-1.11-4.66c-0.26-1.55-0.41-3.1-0.49-4.64c-0.08-1.55-0.04-3.09,0.12-4.63
			c0.17-1.54,0.36-3.08,0.48-4.62c0.23-3.08,0.5-6.16,0.8-9.25c0.34-3.08,0.61-6.16,1-9.24c0.01-0.11,0.11-0.19,0.22-0.17
			C302.39,135.34,302.46,135.42,302.46,135.51z"/>
	</g>
	<g class="st2">
		<path class="st1" d="M8.08,222.33c0.25,3.09,0.4,6.18,0.6,9.28c0.17,3.09,0.3,6.18,0.4,9.27c0.05,1.54,0.18,3.09,0.28,4.64
			c0.09,1.55,0.07,3.09-0.08,4.63c-0.15,1.54-0.37,3.08-0.69,4.62c-0.31,1.54-0.7,3.07-1.31,4.6c-0.04,0.11-0.17,0.16-0.28,0.12
			c-0.06-0.02-0.1-0.07-0.12-0.13c-0.54-1.56-0.86-3.11-1.11-4.66c-0.26-1.55-0.41-3.1-0.49-4.64c-0.08-1.55-0.04-3.09,0.12-4.63
			c0.17-1.54,0.36-3.08,0.48-4.62c0.23-3.08,0.5-6.16,0.8-9.25c0.34-3.08,0.61-6.16,1-9.24c0.01-0.11,0.11-0.19,0.22-0.17
			C8,222.16,8.07,222.24,8.08,222.33z"/>
	</g>
	<g class="st4">
		<path class="st1" d="M452.18,571.07c0.27,2.68,0.43,5.36,0.64,8.03c0.18,2.68,0.33,5.35,0.44,8.03c0.06,1.34,0.19,2.68,0.3,4.02
			c0.1,1.34,0.08,2.68-0.06,4.01c-0.15,1.33-0.35,2.67-0.67,4c-0.3,1.33-0.69,2.66-1.28,3.99c-0.05,0.11-0.18,0.16-0.29,0.11
			c-0.05-0.02-0.09-0.07-0.11-0.12c-0.55-1.35-0.88-2.69-1.13-4.03c-0.27-1.34-0.42-2.68-0.51-4.02c-0.09-1.34-0.06-2.68,0.1-4.01
			c0.16-1.33,0.35-2.67,0.46-4c0.22-2.67,0.47-5.34,0.76-8.01c0.32-2.67,0.58-5.34,0.96-8c0.02-0.11,0.12-0.19,0.23-0.17
			C452.1,570.91,452.17,570.98,452.18,571.07z"/>
	</g>
	<g class="st4">
		<path class="st1" d="M549.72,478.53c0.27,2.68,0.43,5.36,0.64,8.03c0.18,2.68,0.33,5.35,0.44,8.03c0.06,1.34,0.19,2.68,0.3,4.02
			c0.1,1.34,0.08,2.68-0.06,4.01c-0.15,1.33-0.35,2.67-0.67,4c-0.3,1.33-0.69,2.66-1.28,3.99c-0.05,0.11-0.18,0.16-0.29,0.11
			c-0.05-0.02-0.09-0.07-0.11-0.12c-0.55-1.35-0.88-2.69-1.13-4.03c-0.27-1.34-0.42-2.68-0.51-4.02c-0.09-1.34-0.06-2.68,0.1-4.01
			c0.16-1.33,0.35-2.67,0.46-4c0.22-2.67,0.47-5.34,0.76-8.01c0.32-2.67,0.58-5.34,0.96-8c0.02-0.11,0.12-0.19,0.23-0.17
			C549.64,478.36,549.71,478.44,549.72,478.53z"/>
	</g>
	<g class="st4">
		<path class="st1" d="M211.39,270.31c0.27,2.68,0.43,5.36,0.64,8.03c0.18,2.68,0.33,5.35,0.44,8.03c0.06,1.34,0.19,2.68,0.3,4.02
			c0.1,1.34,0.08,2.68-0.06,4.01c-0.15,1.33-0.35,2.67-0.67,4c-0.3,1.33-0.69,2.66-1.28,3.99c-0.05,0.11-0.18,0.16-0.29,0.11
			c-0.05-0.02-0.09-0.07-0.11-0.12c-0.55-1.35-0.88-2.69-1.13-4.03c-0.27-1.34-0.42-2.68-0.51-4.02c-0.09-1.34-0.06-2.67,0.1-4.01
			c0.16-1.33,0.35-2.67,0.46-4c0.22-2.67,0.47-5.34,0.76-8.01c0.32-2.67,0.58-5.34,0.96-8c0.02-0.11,0.12-0.19,0.23-0.17
			C211.31,270.14,211.38,270.22,211.39,270.31z"/>
	</g>
	<g>
		<path class="st1" d="M797.65,83.51c0.22,4.44,0.33,8.88,0.5,13.33c0.13,4.44,0.23,8.88,0.3,13.32c0.07,4.44,0.49,8.89,0.1,13.32
			c-0.16,2.22-0.42,4.43-0.74,6.64c-0.33,2.21-0.73,4.42-1.36,6.63c-0.03,0.11-0.15,0.17-0.25,0.14c-0.07-0.02-0.13-0.08-0.14-0.15
			c-0.52-2.23-0.83-4.46-1.06-6.68c-0.23-2.22-0.38-4.45-0.44-6.67c-0.19-4.44,0.43-8.87,0.7-13.3c0.27-4.43,0.57-8.86,0.9-13.29
			c0.37-4.43,0.68-8.86,1.1-13.29c0.01-0.11,0.11-0.19,0.22-0.18C797.57,83.33,797.64,83.41,797.65,83.51z"/>
	</g>
	<g>
		<path class="st1" d="M607.66,463.35c0.22,4.44,0.33,8.88,0.5,13.33c0.13,4.44,0.23,8.88,0.3,13.32c0.07,4.44,0.49,8.89,0.1,13.32
			c-0.16,2.22-0.42,4.43-0.74,6.64c-0.33,2.21-0.73,4.42-1.36,6.63c-0.03,0.11-0.15,0.17-0.25,0.14c-0.07-0.02-0.13-0.08-0.14-0.15
			c-0.52-2.23-0.83-4.46-1.06-6.68c-0.23-2.22-0.38-4.45-0.44-6.67c-0.19-4.44,0.43-8.87,0.7-13.3c0.27-4.43,0.57-8.86,0.9-13.29
			c0.37-4.43,0.68-8.86,1.1-13.29c0.01-0.11,0.11-0.19,0.22-0.18C607.58,463.17,607.66,463.25,607.66,463.35z"/>
	</g>
	<g>
		<path class="st1" d="M541.76,124.36c0.24,3.37,0.38,6.73,0.57,10.1c0.16,3.37,0.28,6.73,0.37,10.1c0.05,1.68,0.17,3.37,0.27,5.05
			c0.09,1.68,0.06,3.36-0.09,5.04c-0.16,1.68-0.38,3.35-0.71,5.03c-0.32,1.67-0.71,3.35-1.32,5.01c-0.04,0.11-0.16,0.17-0.27,0.13
			c-0.06-0.02-0.11-0.07-0.13-0.13c-0.53-1.69-0.85-3.38-1.09-5.07c-0.25-1.69-0.4-3.37-0.48-5.06c-0.08-1.68-0.03-3.36,0.13-5.04
			c0.17-1.68,0.37-3.35,0.49-5.03c0.24-3.36,0.52-6.71,0.83-10.07c0.35-3.36,0.63-6.71,1.03-10.07c0.01-0.11,0.11-0.19,0.22-0.18
			C541.68,124.19,541.75,124.27,541.76,124.36z"/>
	</g>
	<g>
		<path class="st1" d="M838.68,357.6c0.11,9.68,0.1,19.35,0.16,29.03l-0.04,29.03c-0.04,9.67,0.26,19.36-0.24,29.02
			c-0.25,4.83-0.52,9.66-0.91,14.49c-0.39,4.83-0.85,9.66-1.53,14.48c-0.02,0.11-0.12,0.19-0.23,0.17
			c-0.09-0.01-0.16-0.09-0.17-0.18c-0.47-4.85-0.71-9.69-0.89-14.53c-0.18-4.84-0.24-9.68-0.27-14.52c-0.08-9.68,0.65-19.34,1.04-29
			l1.24-29c0.48-9.67,0.91-19.33,1.44-29c0.01-0.11,0.1-0.19,0.21-0.19C838.6,357.41,838.68,357.5,838.68,357.6z"/>
	</g>
	<g class="st2">
		<path class="st1" d="M674.54,325.06c0.25,3.09,0.4,6.18,0.6,9.28c0.17,3.09,0.3,6.18,0.4,9.27c0.05,1.54,0.18,3.09,0.28,4.64
			c0.09,1.55,0.07,3.09-0.08,4.63c-0.15,1.54-0.37,3.08-0.69,4.62c-0.31,1.54-0.7,3.07-1.31,4.6c-0.04,0.11-0.17,0.16-0.28,0.12
			c-0.06-0.02-0.1-0.07-0.12-0.13c-0.54-1.56-0.86-3.11-1.11-4.66c-0.26-1.55-0.41-3.1-0.49-4.64c-0.08-1.55-0.04-3.09,0.12-4.63
			c0.17-1.54,0.36-3.08,0.48-4.62c0.23-3.08,0.5-6.16,0.8-9.25c0.34-3.08,0.61-6.16,1-9.24c0.01-0.11,0.11-0.19,0.22-0.17
			C674.46,324.89,674.53,324.97,674.54,325.06z"/>
	</g>
	<g class="st2">
		<path class="st1" d="M815.33,301.53c0.22,4.69,0.34,9.38,0.51,14.07c0.14,4.69,0.24,9.38,0.32,14.07
			c0.08,4.69,0.5,9.38,0.12,14.06c-0.19,2.34-0.4,4.68-0.74,7.01c-0.33,2.34-0.73,4.67-1.35,7c-0.03,0.11-0.14,0.18-0.25,0.15
			c-0.08-0.02-0.13-0.08-0.15-0.15c-0.53-2.35-0.83-4.7-1.06-7.05c-0.24-2.35-0.36-4.69-0.45-7.04c-0.2-4.69,0.42-9.36,0.68-14.04
			c0.26-4.68,0.56-9.36,0.88-14.04c0.36-4.68,0.67-9.36,1.08-14.04c0.01-0.11,0.11-0.19,0.22-0.18
			C815.25,301.35,815.33,301.43,815.33,301.53z"/>
	</g>
	<g class="st2">
		<path class="st1" d="M929.7,177.31c0.25,3.09,0.4,6.18,0.6,9.28c0.17,3.09,0.3,6.18,0.4,9.27c0.05,1.54,0.18,3.09,0.28,4.64
			c0.09,1.55,0.07,3.09-0.08,4.63c-0.15,1.54-0.37,3.08-0.69,4.62c-0.31,1.54-0.7,3.07-1.31,4.6c-0.04,0.11-0.17,0.16-0.28,0.12
			c-0.06-0.02-0.1-0.07-0.12-0.13c-0.54-1.56-0.86-3.11-1.11-4.66c-0.26-1.55-0.41-3.1-0.49-4.64c-0.08-1.55-0.04-3.09,0.12-4.63
			c0.17-1.54,0.36-3.08,0.48-4.62c0.23-3.08,0.5-6.16,0.8-9.25c0.34-3.08,0.61-6.16,1-9.24c0.01-0.11,0.11-0.19,0.22-0.17
			C929.62,177.14,929.69,177.22,929.7,177.31z"/>
	</g>
	<g class="st3">
		<path class="st1" d="M769.88-2.33c0.25,3.09,0.4,6.18,0.6,9.28c0.17,3.09,0.3,6.18,0.4,9.27c0.05,1.54,0.18,3.09,0.28,4.64
			c0.09,1.55,0.07,3.09-0.08,4.63c-0.15,1.54-0.37,3.08-0.69,4.62c-0.31,1.54-0.7,3.07-1.31,4.6c-0.04,0.11-0.17,0.16-0.28,0.12
			c-0.06-0.02-0.1-0.07-0.12-0.13c-0.54-1.56-0.86-3.11-1.11-4.66c-0.26-1.55-0.41-3.1-0.49-4.64c-0.08-1.55-0.04-3.09,0.12-4.63
			c0.17-1.54,0.36-3.08,0.48-4.62c0.23-3.08,0.5-6.16,0.8-9.25c0.34-3.08,0.61-6.16,1-9.24c0.01-0.11,0.11-0.19,0.22-0.17
			C769.8-2.5,769.87-2.43,769.88-2.33z"/>
	</g>
	<g class="st2">
		<path class="st1" d="M475.49,84.48c0.25,3.09,0.4,6.18,0.6,9.28c0.17,3.09,0.3,6.18,0.4,9.27c0.05,1.54,0.18,3.09,0.28,4.64
			c0.09,1.55,0.07,3.09-0.08,4.63c-0.15,1.54-0.37,3.08-0.69,4.62c-0.31,1.54-0.7,3.07-1.31,4.6c-0.04,0.11-0.17,0.16-0.28,0.12
			c-0.06-0.02-0.1-0.07-0.12-0.13c-0.54-1.56-0.86-3.11-1.11-4.66c-0.26-1.55-0.41-3.1-0.49-4.64c-0.08-1.55-0.04-3.09,0.12-4.63
			c0.17-1.54,0.36-3.08,0.48-4.62c0.23-3.08,0.5-6.16,0.8-9.25c0.34-3.08,0.61-6.16,1-9.24c0.01-0.11,0.11-0.19,0.22-0.17
			C475.41,84.31,475.48,84.39,475.49,84.48z"/>
	</g>
	<g class="st4">
		<path class="st1" d="M919.59,433.23c0.27,2.68,0.43,5.36,0.64,8.03c0.18,2.68,0.33,5.35,0.44,8.03c0.06,1.34,0.19,2.68,0.3,4.02
			c0.1,1.34,0.08,2.68-0.06,4.01c-0.15,1.33-0.35,2.67-0.67,4c-0.3,1.33-0.69,2.66-1.28,3.99c-0.05,0.11-0.18,0.16-0.29,0.11
			c-0.05-0.02-0.09-0.07-0.11-0.12c-0.55-1.35-0.88-2.69-1.13-4.03c-0.27-1.34-0.42-2.68-0.51-4.02c-0.09-1.34-0.06-2.67,0.1-4.01
			c0.16-1.33,0.35-2.67,0.46-4c0.22-2.67,0.47-5.34,0.76-8.01c0.32-2.67,0.58-5.34,0.96-8c0.02-0.11,0.12-0.19,0.23-0.17
			C919.51,433.06,919.58,433.14,919.59,433.23z"/>
	</g>
	<g class="st4">
		<path class="st1" d="M1017.13,340.68c0.27,2.68,0.43,5.36,0.64,8.03c0.18,2.68,0.33,5.35,0.44,8.03c0.06,1.34,0.19,2.68,0.3,4.02
			c0.1,1.34,0.08,2.68-0.06,4.01c-0.15,1.33-0.35,2.67-0.67,4c-0.3,1.33-0.69,2.66-1.28,3.99c-0.05,0.11-0.18,0.16-0.29,0.11
			c-0.05-0.02-0.09-0.07-0.11-0.12c-0.55-1.35-0.88-2.69-1.13-4.03c-0.27-1.34-0.42-2.68-0.51-4.02c-0.09-1.34-0.06-2.67,0.1-4.01
			c0.16-1.33,0.35-2.67,0.46-4c0.22-2.67,0.47-5.34,0.76-8.01c0.32-2.67,0.58-5.34,0.96-8c0.02-0.11,0.12-0.19,0.23-0.17
			C1017.05,340.52,1017.12,340.59,1017.13,340.68z"/>
	</g>
	<g class="st4">
		<path class="st1" d="M678.8,132.46c0.27,2.68,0.43,5.36,0.64,8.03c0.18,2.68,0.33,5.35,0.44,8.03c0.06,1.34,0.19,2.68,0.3,4.02
			c0.1,1.34,0.08,2.68-0.06,4.01c-0.15,1.33-0.35,2.67-0.67,4c-0.3,1.33-0.69,2.66-1.28,3.99c-0.05,0.11-0.18,0.16-0.29,0.11
			c-0.05-0.02-0.09-0.07-0.11-0.12c-0.55-1.35-0.88-2.69-1.13-4.03c-0.27-1.34-0.42-2.68-0.51-4.02c-0.09-1.34-0.06-2.67,0.1-4.01
			c0.16-1.33,0.35-2.67,0.46-4c0.22-2.67,0.47-5.34,0.76-8.01c0.32-2.67,0.58-5.34,0.96-8c0.02-0.11,0.12-0.19,0.23-0.17
			C678.72,132.3,678.79,132.37,678.8,132.46z"/>
	</g>
	<g>
		<path class="st1" d="M1191.86-13.98c0.22,4.44,0.33,8.88,0.5,13.33c0.13,4.44,0.23,8.88,0.3,13.32c0.07,4.44,0.49,8.89,0.1,13.32
			c-0.16,2.22-0.42,4.43-0.74,6.64c-0.33,2.21-0.73,4.42-1.36,6.63c-0.03,0.11-0.15,0.17-0.26,0.14c-0.07-0.02-0.13-0.08-0.14-0.15
			c-0.52-2.23-0.83-4.46-1.06-6.68c-0.23-2.22-0.38-4.45-0.44-6.67c-0.19-4.44,0.43-8.87,0.7-13.3c0.27-4.43,0.57-8.86,0.9-13.29
			c0.37-4.43,0.68-8.86,1.1-13.29c0.01-0.11,0.11-0.19,0.22-0.18C1191.78-14.16,1191.85-14.07,1191.86-13.98z"/>
	</g>
	<g>
		<path class="st1" d="M1001.87,365.86c0.22,4.44,0.33,8.88,0.5,13.33c0.13,4.44,0.23,8.88,0.3,13.32c0.07,4.44,0.49,8.89,0.1,13.32
			c-0.16,2.22-0.42,4.43-0.74,6.64c-0.33,2.21-0.73,4.42-1.36,6.63c-0.03,0.11-0.15,0.17-0.25,0.14c-0.07-0.02-0.13-0.08-0.14-0.15
			c-0.52-2.23-0.83-4.46-1.06-6.68c-0.23-2.22-0.38-4.45-0.44-6.67c-0.19-4.44,0.43-8.87,0.7-13.3c0.27-4.43,0.57-8.86,0.9-13.29
			c0.37-4.43,0.68-8.86,1.1-13.29c0.01-0.11,0.11-0.19,0.22-0.18C1001.79,365.68,1001.87,365.76,1001.87,365.86z"/>
	</g>
	<g>
		<path class="st1" d="M935.97,26.87c0.24,3.37,0.38,6.73,0.57,10.1c0.16,3.37,0.28,6.73,0.37,10.1c0.05,1.68,0.17,3.37,0.27,5.05
			c0.09,1.68,0.06,3.36-0.09,5.04c-0.16,1.68-0.38,3.35-0.71,5.03c-0.32,1.67-0.71,3.35-1.32,5.01c-0.04,0.11-0.16,0.17-0.27,0.13
			c-0.06-0.02-0.11-0.07-0.13-0.13c-0.53-1.69-0.85-3.38-1.09-5.07c-0.25-1.69-0.4-3.37-0.48-5.06c-0.08-1.68-0.03-3.36,0.13-5.04
			c0.17-1.68,0.37-3.35,0.49-5.03c0.24-3.36,0.52-6.71,0.83-10.07c0.35-3.36,0.63-6.71,1.03-10.07c0.01-0.11,0.11-0.19,0.22-0.18
			C935.89,26.7,935.96,26.78,935.97,26.87z"/>
	</g>
	<g>
		<path class="st1" d="M1232.89,260.12c0.11,9.68,0.1,19.35,0.16,29.03l-0.04,29.03c-0.04,9.67,0.26,19.36-0.24,29.02
			c-0.25,4.83-0.52,9.66-0.91,14.49c-0.39,4.83-0.85,9.66-1.53,14.48c-0.02,0.11-0.12,0.19-0.23,0.17
			c-0.09-0.01-0.16-0.09-0.17-0.18c-0.47-4.85-0.71-9.69-0.89-14.53c-0.18-4.84-0.24-9.68-0.27-14.52c-0.08-9.68,0.65-19.34,1.04-29
			l1.24-29c0.48-9.67,0.91-19.33,1.44-29c0.01-0.11,0.1-0.19,0.21-0.19C1232.81,259.92,1232.89,260.01,1232.89,260.12z"/>
	</g>
	<g class="st2">
		<path class="st1" d="M1068.75,227.57c0.25,3.09,0.4,6.18,0.6,9.28c0.17,3.09,0.3,6.18,0.4,9.27c0.05,1.54,0.18,3.09,0.28,4.64
			c0.09,1.55,0.07,3.09-0.08,4.63c-0.15,1.54-0.37,3.08-0.69,4.62c-0.31,1.54-0.7,3.07-1.31,4.6c-0.04,0.11-0.17,0.16-0.28,0.12
			c-0.06-0.02-0.1-0.07-0.12-0.13c-0.54-1.56-0.86-3.11-1.11-4.66c-0.26-1.55-0.41-3.1-0.49-4.64c-0.08-1.55-0.04-3.09,0.12-4.63
			c0.17-1.54,0.36-3.08,0.48-4.62c0.23-3.08,0.5-6.16,0.8-9.25c0.34-3.08,0.61-6.16,1-9.24c0.01-0.11,0.11-0.19,0.22-0.17
			C1068.67,227.4,1068.74,227.48,1068.75,227.57z"/>
	</g>
	<g class="st2">
		<path class="st1" d="M1209.54,204.04c0.22,4.69,0.34,9.38,0.52,14.07c0.14,4.69,0.24,9.38,0.32,14.07
			c0.08,4.69,0.5,9.38,0.11,14.06c-0.19,2.34-0.4,4.68-0.74,7.01c-0.33,2.34-0.73,4.67-1.35,7c-0.03,0.11-0.14,0.18-0.25,0.15
			c-0.08-0.02-0.13-0.08-0.15-0.15c-0.53-2.35-0.83-4.7-1.06-7.05c-0.24-2.35-0.36-4.69-0.45-7.04c-0.2-4.69,0.42-9.36,0.68-14.04
			c0.26-4.68,0.56-9.36,0.88-14.04c0.36-4.68,0.67-9.36,1.08-14.04c0.01-0.11,0.11-0.19,0.22-0.18
			C1209.46,203.86,1209.54,203.94,1209.54,204.04z"/>
	</g>
	<g class="st2">
		<path class="st1" d="M1323.91,79.82c0.25,3.09,0.4,6.18,0.6,9.28c0.17,3.09,0.3,6.18,0.4,9.27c0.05,1.54,0.18,3.09,0.28,4.64
			c0.09,1.55,0.07,3.09-0.08,4.63c-0.15,1.54-0.37,3.08-0.69,4.62c-0.31,1.54-0.7,3.07-1.31,4.6c-0.04,0.11-0.17,0.16-0.28,0.12
			c-0.06-0.02-0.1-0.07-0.12-0.13c-0.54-1.56-0.86-3.11-1.11-4.66c-0.26-1.55-0.41-3.1-0.49-4.64c-0.08-1.55-0.04-3.09,0.12-4.63
			c0.17-1.54,0.36-3.08,0.48-4.62c0.23-3.08,0.5-6.16,0.8-9.25c0.34-3.08,0.61-6.16,1-9.24c0.01-0.11,0.11-0.19,0.22-0.17
			C1323.83,79.65,1323.9,79.73,1323.91,79.82z"/>
	</g>
	<g class="st3">
		<path class="st1" d="M1164.09-99.82c0.25,3.09,0.4,6.18,0.6,9.28c0.17,3.09,0.3,6.18,0.4,9.27c0.05,1.54,0.18,3.09,0.28,4.64
			c0.09,1.55,0.07,3.09-0.08,4.63c-0.15,1.54-0.37,3.08-0.69,4.62c-0.31,1.54-0.7,3.07-1.31,4.6c-0.04,0.11-0.17,0.16-0.28,0.12
			c-0.06-0.02-0.1-0.07-0.12-0.13c-0.54-1.56-0.86-3.11-1.11-4.66c-0.26-1.55-0.41-3.1-0.49-4.64c-0.08-1.55-0.04-3.09,0.12-4.63
			c0.17-1.54,0.36-3.08,0.48-4.62c0.23-3.08,0.5-6.16,0.8-9.25c0.34-3.08,0.61-6.16,1-9.24c0.01-0.11,0.11-0.19,0.22-0.17
			C1164.01-99.99,1164.08-99.92,1164.09-99.82z"/>
	</g>
	<g class="st2">
		<path class="st1" d="M869.7-13c0.25,3.09,0.4,6.18,0.6,9.28c0.17,3.09,0.3,6.18,0.4,9.27c0.05,1.54,0.18,3.09,0.28,4.64
			c0.09,1.55,0.07,3.09-0.08,4.63c-0.15,1.54-0.37,3.08-0.69,4.62c-0.31,1.54-0.7,3.07-1.31,4.6c-0.04,0.11-0.17,0.16-0.28,0.12
			c-0.06-0.02-0.1-0.07-0.12-0.13c-0.54-1.56-0.86-3.11-1.11-4.66c-0.26-1.55-0.41-3.1-0.49-4.64c-0.08-1.55-0.04-3.09,0.12-4.63
			c0.17-1.54,0.36-3.08,0.48-4.62c0.23-3.08,0.5-6.16,0.8-9.25c0.34-3.08,0.61-6.16,1-9.24c0.01-0.11,0.11-0.19,0.22-0.17
			C869.62-13.18,869.69-13.1,869.7-13z"/>
	</g>
	<g class="st4">
		<path class="st1" d="M1313.8,335.74c0.27,2.68,0.43,5.36,0.64,8.03c0.18,2.68,0.33,5.35,0.44,8.03c0.06,1.34,0.19,2.68,0.3,4.02
			c0.1,1.34,0.08,2.68-0.06,4.01c-0.15,1.33-0.35,2.67-0.67,4c-0.3,1.33-0.69,2.66-1.28,3.99c-0.05,0.11-0.18,0.16-0.29,0.11
			c-0.05-0.02-0.09-0.07-0.11-0.12c-0.55-1.35-0.88-2.69-1.13-4.03c-0.27-1.34-0.42-2.68-0.51-4.02c-0.09-1.34-0.06-2.67,0.1-4.01
			c0.16-1.33,0.35-2.67,0.46-4c0.22-2.67,0.47-5.34,0.76-8.01c0.32-2.67,0.58-5.34,0.96-8c0.02-0.11,0.12-0.19,0.23-0.17
			C1313.72,335.58,1313.79,335.65,1313.8,335.74z"/>
	</g>
	<g class="st4">
		<path class="st1" d="M1411.34,243.2c0.27,2.68,0.43,5.36,0.64,8.03c0.18,2.68,0.33,5.35,0.44,8.03c0.06,1.34,0.19,2.68,0.3,4.02
			c0.1,1.34,0.08,2.68-0.06,4.01c-0.15,1.33-0.35,2.67-0.67,4c-0.3,1.33-0.69,2.66-1.28,3.99c-0.05,0.11-0.18,0.16-0.29,0.11
			c-0.05-0.02-0.09-0.07-0.11-0.12c-0.55-1.35-0.88-2.69-1.13-4.03c-0.27-1.34-0.42-2.68-0.52-4.02c-0.09-1.34-0.06-2.67,0.1-4.01
			c0.16-1.33,0.35-2.67,0.46-4c0.22-2.67,0.47-5.34,0.76-8.01c0.32-2.67,0.58-5.34,0.96-8c0.02-0.11,0.12-0.19,0.23-0.17
			C1411.26,243.03,1411.33,243.1,1411.34,243.2z"/>
	</g>
	<g class="st4">
		<path class="st1" d="M1073.01,34.97c0.27,2.68,0.43,5.36,0.64,8.03c0.18,2.68,0.33,5.35,0.44,8.03c0.06,1.34,0.19,2.68,0.3,4.02
			c0.1,1.34,0.08,2.68-0.06,4.01c-0.15,1.33-0.35,2.67-0.67,4c-0.3,1.33-0.69,2.66-1.28,3.99c-0.05,0.11-0.18,0.16-0.29,0.11
			c-0.05-0.02-0.09-0.07-0.11-0.12c-0.55-1.35-0.88-2.69-1.13-4.03c-0.27-1.34-0.42-2.68-0.52-4.02c-0.09-1.34-0.06-2.67,0.1-4.01
			c0.16-1.33,0.35-2.67,0.46-4c0.22-2.67,0.47-5.34,0.76-8.01c0.32-2.67,0.58-5.34,0.96-8c0.02-0.11,0.12-0.19,0.23-0.17
			C1072.93,34.81,1073,34.88,1073.01,34.97z"/>
	</g>
	<g>
		<path class="st1" d="M1659.27-151.82c0.22,4.44,0.33,8.88,0.5,13.33c0.13,4.44,0.23,8.88,0.3,13.32c0.07,4.44,0.49,8.89,0.1,13.32
			c-0.16,2.22-0.42,4.43-0.74,6.64c-0.33,2.21-0.73,4.42-1.36,6.63c-0.03,0.11-0.15,0.17-0.26,0.14c-0.07-0.02-0.13-0.08-0.14-0.15
			c-0.52-2.23-0.83-4.46-1.06-6.68c-0.23-2.22-0.38-4.45-0.44-6.67c-0.19-4.44,0.43-8.87,0.7-13.3c0.27-4.43,0.57-8.86,0.9-13.29
			c0.37-4.43,0.68-8.86,1.1-13.29c0.01-0.11,0.11-0.19,0.22-0.18C1659.19-152,1659.26-151.92,1659.27-151.82z"/>
	</g>
	<g>
		<path class="st1" d="M1469.28,228.02c0.22,4.44,0.33,8.88,0.5,13.33c0.13,4.44,0.23,8.88,0.3,13.32c0.07,4.44,0.49,8.89,0.1,13.32
			c-0.16,2.22-0.42,4.43-0.74,6.64c-0.33,2.21-0.73,4.42-1.36,6.63c-0.03,0.11-0.15,0.17-0.25,0.14c-0.07-0.02-0.13-0.08-0.15-0.15
			c-0.52-2.23-0.83-4.46-1.06-6.68c-0.23-2.22-0.38-4.45-0.44-6.67c-0.19-4.44,0.43-8.87,0.7-13.3c0.27-4.43,0.57-8.86,0.9-13.29
			c0.37-4.43,0.68-8.86,1.1-13.29c0.01-0.11,0.11-0.19,0.22-0.18C1469.2,227.84,1469.28,227.92,1469.28,228.02z"/>
	</g>
	<g>
		<path class="st1" d="M1403.38-110.97c0.24,3.37,0.38,6.73,0.57,10.1c0.16,3.37,0.28,6.73,0.37,10.1c0.05,1.68,0.17,3.37,0.27,5.05
			c0.09,1.68,0.06,3.36-0.09,5.04c-0.16,1.68-0.38,3.35-0.71,5.03c-0.32,1.67-0.71,3.35-1.32,5.01c-0.04,0.11-0.16,0.17-0.27,0.13
			c-0.06-0.02-0.11-0.07-0.13-0.13c-0.54-1.69-0.85-3.38-1.09-5.07c-0.25-1.69-0.4-3.37-0.48-5.06c-0.08-1.68-0.03-3.36,0.13-5.04
			c0.17-1.68,0.37-3.35,0.49-5.03c0.24-3.36,0.52-6.71,0.83-10.07c0.35-3.36,0.63-6.71,1.03-10.07c0.01-0.11,0.11-0.19,0.22-0.18
			C1403.3-111.15,1403.37-111.07,1403.38-110.97z"/>
	</g>
	<g>
		<path class="st1" d="M1700.3,122.27c0.11,9.68,0.1,19.35,0.16,29.03l-0.04,29.03c-0.04,9.67,0.26,19.36-0.24,29.02
			c-0.25,4.83-0.52,9.66-0.91,14.49c-0.39,4.83-0.85,9.66-1.53,14.48c-0.02,0.11-0.12,0.19-0.23,0.17
			c-0.09-0.01-0.16-0.09-0.17-0.18c-0.47-4.85-0.71-9.69-0.89-14.53c-0.18-4.84-0.24-9.68-0.27-14.52c-0.08-9.68,0.65-19.34,1.04-29
			l1.24-29c0.48-9.67,0.91-19.33,1.44-29c0.01-0.11,0.1-0.19,0.21-0.19C1700.22,122.08,1700.3,122.17,1700.3,122.27z"/>
	</g>
	<g class="st2">
		<path class="st1" d="M1536.16,89.73c0.25,3.09,0.4,6.18,0.6,9.28c0.17,3.09,0.3,6.18,0.4,9.27c0.05,1.54,0.18,3.09,0.28,4.64
			c0.09,1.55,0.07,3.09-0.08,4.63c-0.15,1.54-0.37,3.08-0.69,4.62c-0.31,1.54-0.7,3.07-1.31,4.6c-0.04,0.11-0.17,0.16-0.28,0.12
			c-0.06-0.02-0.1-0.07-0.12-0.13c-0.54-1.56-0.86-3.11-1.11-4.66c-0.26-1.55-0.41-3.1-0.49-4.64c-0.08-1.55-0.04-3.09,0.12-4.63
			c0.17-1.54,0.36-3.08,0.48-4.62c0.23-3.08,0.5-6.16,0.8-9.25c0.34-3.08,0.61-6.16,1-9.24c0.01-0.11,0.11-0.19,0.22-0.17
			C1536.08,89.56,1536.15,89.63,1536.16,89.73z"/>
	</g>
	<g class="st2">
		<path class="st1" d="M1676.95,66.2c0.22,4.69,0.34,9.38,0.52,14.07c0.14,4.69,0.24,9.38,0.32,14.07c0.08,4.69,0.5,9.38,0.11,14.06
			c-0.19,2.34-0.4,4.68-0.74,7.01c-0.33,2.34-0.73,4.67-1.35,7c-0.03,0.11-0.14,0.18-0.25,0.15c-0.08-0.02-0.13-0.08-0.15-0.15
			c-0.53-2.35-0.83-4.7-1.06-7.05c-0.24-2.35-0.36-4.69-0.45-7.04c-0.2-4.69,0.42-9.36,0.68-14.04c0.26-4.68,0.56-9.36,0.88-14.04
			c0.36-4.68,0.67-9.36,1.08-14.04c0.01-0.11,0.11-0.19,0.22-0.18C1676.87,66.01,1676.95,66.1,1676.95,66.2z"/>
	</g>
	<g class="st2">
		<path class="st1" d="M1791.32-58.02c0.25,3.09,0.4,6.18,0.6,9.28c0.17,3.09,0.3,6.18,0.4,9.27c0.05,1.54,0.18,3.09,0.28,4.64
			c0.09,1.55,0.07,3.09-0.08,4.63c-0.15,1.54-0.37,3.08-0.69,4.62c-0.31,1.54-0.7,3.07-1.31,4.6c-0.04,0.11-0.17,0.16-0.28,0.12
			c-0.06-0.02-0.1-0.07-0.12-0.13c-0.54-1.56-0.86-3.11-1.11-4.66c-0.26-1.55-0.41-3.1-0.49-4.64c-0.08-1.55-0.04-3.09,0.12-4.63
			c0.17-1.54,0.36-3.08,0.48-4.62c0.23-3.08,0.5-6.16,0.8-9.25c0.34-3.08,0.61-6.16,1-9.24c0.01-0.11,0.11-0.19,0.22-0.17
			C1791.24-58.2,1791.31-58.12,1791.32-58.02z"/>
	</g>
	<g class="st3">
		<path class="st1" d="M1631.5-237.67c0.25,3.09,0.4,6.18,0.6,9.28c0.17,3.09,0.3,6.18,0.4,9.27c0.05,1.54,0.18,3.09,0.28,4.64
			c0.09,1.55,0.07,3.09-0.08,4.63c-0.15,1.54-0.37,3.08-0.69,4.62c-0.31,1.54-0.7,3.07-1.31,4.6c-0.04,0.11-0.17,0.16-0.28,0.12
			c-0.06-0.02-0.1-0.07-0.12-0.13c-0.54-1.56-0.86-3.11-1.11-4.66c-0.26-1.55-0.41-3.1-0.49-4.64c-0.08-1.55-0.04-3.09,0.12-4.63
			c0.17-1.54,0.36-3.08,0.48-4.62c0.23-3.08,0.5-6.16,0.8-9.25c0.34-3.08,0.61-6.16,1-9.24c0.01-0.11,0.11-0.19,0.22-0.17
			C1631.42-237.84,1631.49-237.76,1631.5-237.67z"/>
	</g>
	<g class="st2">
		<path class="st1" d="M1337.11-150.85c0.25,3.09,0.4,6.18,0.6,9.28c0.17,3.09,0.3,6.18,0.4,9.27c0.05,1.54,0.18,3.09,0.28,4.64
			c0.09,1.55,0.07,3.09-0.08,4.63c-0.15,1.54-0.37,3.08-0.69,4.62c-0.31,1.54-0.7,3.07-1.31,4.6c-0.04,0.11-0.17,0.16-0.28,0.12
			c-0.06-0.02-0.1-0.07-0.12-0.13c-0.54-1.56-0.86-3.11-1.11-4.66c-0.26-1.55-0.41-3.1-0.49-4.64c-0.08-1.55-0.04-3.09,0.12-4.63
			c0.17-1.54,0.36-3.08,0.48-4.62c0.23-3.08,0.5-6.16,0.8-9.25c0.34-3.08,0.61-6.16,1-9.24c0.01-0.11,0.11-0.19,0.22-0.17
			C1337.03-151.02,1337.1-150.94,1337.11-150.85z"/>
	</g>
	<g class="st4">
		<path class="st1" d="M1781.21,197.9c0.27,2.68,0.43,5.36,0.64,8.03c0.18,2.68,0.33,5.35,0.44,8.03c0.06,1.34,0.19,2.68,0.3,4.02
			c0.1,1.34,0.08,2.68-0.06,4.01c-0.15,1.33-0.35,2.67-0.67,4c-0.3,1.33-0.69,2.66-1.28,3.99c-0.05,0.11-0.18,0.16-0.29,0.11
			c-0.05-0.02-0.09-0.07-0.11-0.12c-0.55-1.35-0.88-2.69-1.13-4.03c-0.27-1.34-0.42-2.68-0.51-4.02c-0.09-1.34-0.06-2.67,0.1-4.01
			c0.16-1.33,0.35-2.67,0.46-4c0.22-2.67,0.47-5.34,0.76-8.01c0.32-2.67,0.58-5.34,0.96-8c0.02-0.11,0.12-0.19,0.23-0.17
			C1781.13,197.73,1781.2,197.81,1781.21,197.9z"/>
	</g>
	<g class="st4">
		<path class="st1" d="M1878.75,105.35c0.27,2.68,0.43,5.36,0.64,8.03c0.18,2.68,0.33,5.35,0.44,8.03c0.06,1.34,0.19,2.68,0.3,4.02
			c0.1,1.34,0.08,2.68-0.06,4.01c-0.15,1.33-0.35,2.67-0.67,4c-0.3,1.33-0.69,2.66-1.28,3.99c-0.05,0.11-0.18,0.16-0.29,0.11
			c-0.05-0.02-0.09-0.07-0.11-0.12c-0.55-1.35-0.88-2.69-1.13-4.03c-0.27-1.34-0.42-2.68-0.52-4.02c-0.09-1.34-0.06-2.67,0.1-4.01
			c0.16-1.33,0.35-2.67,0.46-4c0.22-2.67,0.47-5.34,0.76-8.01c0.32-2.67,0.58-5.34,0.96-8c0.02-0.11,0.12-0.19,0.23-0.17
			C1878.67,105.19,1878.74,105.26,1878.75,105.35z"/>
	</g>
	<g class="st4">
		<path class="st1" d="M1540.42-102.87c0.27,2.68,0.43,5.36,0.64,8.03c0.18,2.68,0.33,5.35,0.44,8.03c0.06,1.34,0.19,2.68,0.3,4.02
			c0.1,1.34,0.08,2.68-0.06,4.01c-0.15,1.33-0.35,2.67-0.67,4c-0.3,1.33-0.69,2.66-1.28,3.99c-0.05,0.11-0.18,0.16-0.29,0.11
			c-0.05-0.02-0.09-0.07-0.11-0.12c-0.55-1.35-0.88-2.69-1.13-4.03c-0.27-1.34-0.42-2.68-0.51-4.02c-0.09-1.34-0.06-2.67,0.1-4.01
			c0.16-1.33,0.35-2.67,0.46-4c0.22-2.67,0.47-5.34,0.76-8.01c0.32-2.67,0.58-5.34,0.96-8c0.02-0.11,0.12-0.19,0.23-0.17
			C1540.34-103.04,1540.41-102.96,1540.42-102.87z"/>
	</g>
</g>
</svg>
