<?xml version="1.0" encoding="utf-8"?>
<!-- Generator: Adobe Illustrator 23.0.6, SVG Export Plug-In . SVG Version: 6.00 Build 0)  -->
<svg version="1.1" xmlns="http://www.w3.org/2000/svg" xmlns:xlink="http://www.w3.org/1999/xlink" x="0px" y="0px"
	 viewBox="0 0 1132 1080" style="enable-background:new 0 0 1132 1080;" xml:space="preserve">
<style type="text/css">
	.st0{display:none;}
	.st1{fill:#F2F2F2;}
	.st2{opacity:0.26;fill:#F2F2F2;}
</style>
<g id="Calque_2" class="st0">
</g>
<g id="Calque_1">
	<circle class="st1" cx="135.33" cy="194.92" r="11.51"/>
	<circle class="st1" cx="431.78" cy="393.51" r="11.51"/>
	<circle class="st2" cx="331.77" cy="94.91" r="11.51"/>
	<circle class="st2" cx="265.21" cy="324.8" r="8.27"/>
	<circle class="st1" cx="457.68" cy="517.27" r="7.91"/>
	<circle class="st1" cx="572.09" cy="542.46" r="7.91"/>
	<circle class="st1" cx="587.92" cy="520.87" r="7.91"/>
	<circle class="st1" cx="233.19" cy="67.56" r="7.91"/>
	<circle class="st1" cx="249.02" cy="654.7" r="7.91"/>
	<circle class="st1" cx="551.22" cy="119.37" r="12.95"/>
	<circle class="st1" cx="739.02" cy="662.62" r="12.95"/>
	<circle class="st2" cx="610.95" cy="303.57" r="9.35"/>
	<circle class="st2" cx="739.02" cy="451.79" r="19.43"/>
	<circle class="st1" cx="672.83" cy="75.48" r="19.43"/>
	<circle class="st1" cx="374.22" cy="734.57" r="19.43"/>
	<circle class="st1" cx="66.98" cy="29.43" r="19.43"/>
	<circle class="st1" cx="781.34" cy="424.45" r="11.51"/>
	<circle class="st1" cx="650.93" cy="756.58" r="11.51"/>
	<circle class="st2" cx="921.15" cy="594.87" r="11.51"/>
	<circle class="st2" cx="682.33" cy="579.15" r="8.27"/>
	<circle class="st1" cx="535.6" cy="808.42" r="7.91"/>
	<circle class="st1" cx="535.53" cy="925.56" r="7.91"/>
	<circle class="st1" cx="560.01" cy="936.39" r="7.91"/>
	<circle class="st1" cx="926.72" cy="492.72" r="7.91"/>
	<circle class="st1" cx="356.62" cy="634.07" r="7.91"/>
	<circle class="st1" cx="944.3" cy="814.47" r="12.95"/>
	<circle class="st1" cx="453.95" cy="1114.37" r="12.95"/>
	<circle class="st2" cx="777.19" cy="912.3" r="9.35"/>
	<circle class="st2" cx="659.87" cy="1069.17" r="19.43"/>
	<circle class="st1" cx="1013.24" cy="923.83" r="19.43"/>
	<circle class="st1" cx="305.46" cy="773.48" r="19.43"/>
	<circle class="st1" cx="928.33" cy="322.2" r="19.43"/>
</g>
</svg>
