<?xml version="1.0" encoding="utf-8"?>
<!-- Generator: Adobe Illustrator 23.0.6, SVG Export Plug-In . SVG Version: 6.00 Build 0)  -->
<svg version="1.1" id="Calque_1" xmlns="http://www.w3.org/2000/svg" xmlns:xlink="http://www.w3.org/1999/xlink" x="0px" y="0px"
	 viewBox="0 0 1700.79 1700.79" style="enable-background:new 0 0 1700.79 1700.79;" xml:space="preserve">
<style type="text/css">
	.st0{fill:#FED307;}
</style>
<g>
	<path class="st0" d="M863.34,561.27c0,0-286.05,10.36-371.03,259.1c-84.99,248.74,114,354.45,313,350.31
		c198.99-4.15,516.13-91.21,437.37-331.65C1163.9,598.58,1006.37,550.9,863.34,561.27z"/>
	<path class="st0" d="M1063.37,240.67c0,0-94.31,103.98-108.82,176.53s81.88,103.64,127.48-34.2
		C1127.63,245.16,1107.93,200.94,1063.37,240.67z"/>
	<path class="st0" d="M1352.06,399.01c0,0-134.04,41.73-183.36,96.88c-49.32,55.14,17.95,130.85,127.2,35.23
		C1405.15,435.49,1410.63,387.4,1352.06,399.01z"/>
	<path class="st0" d="M796.66,1253.98c0,0-48.71,131.68-35.1,204.4c13.6,72.72,114.63,65.61,105.51-79.29
		C857.96,1234.18,823.19,1200.5,796.66,1253.98z"/>
	<path class="st0" d="M1454.72,686.49c0,0-115.39-2.96-169.3,26.8c-53.9,29.76-23.8,106.18,87.97,60.83
		C1485.16,728.77,1503.23,692.92,1454.72,686.49z"/>
	<path class="st0" d="M1321.92,961.78c0,0,100.66,81.32,168.92,91.61c68.26,10.28,93.59-78.25-36.79-114.12
		C1323.66,903.4,1283.15,922.97,1321.92,961.78z"/>
	<path class="st0" d="M1365.66,1183.43c0,0-110.55-89.91-149.24-60.84c-38.69,29.06-31.78,76.05,24.87,113.36
		c56.66,37.31,120.22,60.81,138.19,24.87C1397.44,1224.89,1388.66,1200.7,1365.66,1183.43z"/>
	<path class="st0" d="M1141.84,1375.48c0,0-38.52-137.19-86.88-135.74c-48.37,1.45-69.81,43.82-45.02,106.97
		c24.79,63.15,63.19,118.99,98.59,99.98C1143.92,1427.68,1150.69,1402.86,1141.84,1375.48z"/>
	<path class="st0" d="M750.97,215.56c0,0,73.06,119.88,73.66,193.86c0.59,73.98-99.92,86.38-118.76-57.58
		C687.02,207.87,714.68,168.15,750.97,215.56z"/>
	<path class="st0" d="M483.25,363.77c0,0,123.79,66.22,161.85,129.66c38.06,63.45-42.26,125.14-131.56,10.66
		C424.24,389.61,427.92,341.35,483.25,363.77z"/>
	<path class="st0" d="M274.02,558.01c0,0,113.88,18.81,161.23,58.18c47.34,39.37,3.4,108.76-97.85,43.19
		C236.15,593.79,225.16,555.2,274.02,558.01z"/>
	<path class="st0" d="M383.31,899.99c0,0-114.16,60.93-183.14,58.19c-68.98-2.75-77.19-94.46,57.61-105.16
		C392.6,842.33,428.7,869.17,383.31,899.99z"/>
	<path class="st0" d="M308.63,1076.73c0,0,125.5-67.5,158.03-31.67c32.53,35.82,16.91,80.68-45.76,106.65
		c-62.67,25.97-129.51,37.1-140.4-1.58C269.61,1111.46,282.79,1089.36,308.63,1076.73z"/>
	<path class="st0" d="M511.83,1315.32c0,0,63.65-127.49,110.88-116.97c47.23,10.54,60.32,56.19,24.08,113.54
		c-36.24,57.36-84.45,104.97-115.64,79.63C499.96,1366.2,497.99,1340.54,511.83,1315.32z"/>
</g>
</svg>
